<?xml version="1.0" encoding="utf-8"?>
<!-- Generator: Adobe Illustrator 22.1.0, SVG Export Plug-In . SVG Version: 6.00 Build 0)  -->
<svg version="1.1" id="Layer_1" xmlns="http://www.w3.org/2000/svg" xmlns:xlink="http://www.w3.org/1999/xlink" x="0px" y="0px"
	 viewBox="0 0 344 219" style="enable-background:new 0 0 344 219;" xml:space="preserve">
<style type="text/css">
	.st0{fill:url(#SVGID_1_);}
	.st1{fill:#DCEDFD;}
	.st2{fill:#1489EF;}
	.st3{fill:#17263E;}
	.st4{fill:none;}
	.st5{fill:#FFFFFF;}
</style>
<title>Artboard 1</title>
<g>
	
		<linearGradient id="SVGID_1_" gradientUnits="userSpaceOnUse" x1="172" y1="-789" x2="172" y2="-719" gradientTransform="matrix(1 0 0 -1 0 -584)">
		<stop  offset="0" style="stop-color:#FFFFFF;stop-opacity:0"/>
		<stop  offset="1" style="stop-color:#DCEDFD"/>
	</linearGradient>
	<path class="st0" d="M341,205c0-38.7-75.7-70-169-70S3,166.3,3,205"/>
</g>
<g>
	<path class="st1" d="M292.5,71.7L292.5,71.7c0.6,0.2,0.9,0.8,0.7,1.4l-2.2,6.4c-0.2,0.6-0.8,0.9-1.4,0.7l0,0
		c-0.6-0.2-0.9-0.8-0.7-1.4l2.2-6.4C291.2,71.8,291.9,71.5,292.5,71.7z"/>
	<path class="st1" d="M295.3,77.5L295.3,77.5c-0.2,0.6-0.8,0.9-1.4,0.7l-6.4-2.2c-0.6-0.2-0.9-0.8-0.7-1.4l0,0
		c0.2-0.6,0.8-0.9,1.4-0.7l6.4,2.2C295.2,76.2,295.5,76.9,295.3,77.5z"/>
	<circle class="st1" cx="284.5" cy="63" r="1"/>
	<circle class="st1" cx="302" cy="71.5" r="1.5"/>
	<circle class="st1" cx="291" cy="102.5" r="1.5"/>
</g>
<g>
	<path class="st1" d="M45,34.5L45,34.5c0.6,0,1.1,0.5,1.1,1.1v6.8c0,0.6-0.5,1.1-1.1,1.1l0,0c-0.6,0-1.1-0.5-1.1-1.1v-6.8
		C43.9,35,44.4,34.5,45,34.5z"/>
	<path class="st1" d="M49.5,39L49.5,39c0,0.6-0.5,1.1-1.1,1.1h-6.8c-0.6,0-1.1-0.5-1.1-1.1l0,0c0-0.6,0.5-1.1,1.1-1.1h6.8
		C49,37.9,49.5,38.4,49.5,39z"/>
	<circle class="st1" cx="56.5" cy="52" r="2"/>
	<polygon class="st1" points="42.8,64.2 46.2,63.3 43.7,60.8 	"/>
</g>
<g>
	<path class="st1" d="M250,109.1c-1,2.6-3.5,4.3-6.3,4.3H100.5c-2.8,0-5.4-1.8-6.3-4.4"/>
	<path class="st2" d="M97.7,109.8L97.7,109.8c-4.6,0-8.3-3.7-8.3-8.3V45.1c0-3.9,3.2-7.1,7.1-7.1h1.3c0.3,0,0.5,0.2,0.5,0.5l0,0
		v70.8C98.2,109.6,98,109.8,97.7,109.8z"/>
	<path class="st3" d="M247.8,40c3.2,0,5.8,2.6,5.8,5.8V102c0,3.2-2.6,5.8-5.8,5.8H97.2c-3.2,0-5.8-2.6-5.8-5.8V45.8
		c0-3.2,2.6-5.8,5.8-5.8H247.8 M247.8,38H97.2c-4.3,0-7.8,3.5-7.8,7.8V102c0,4.3,3.5,7.8,7.8,7.8h150.6c4.3,0,7.8-3.5,7.8-7.8V45.8
		C255.6,41.5,252.1,38,247.8,38z"/>
	<circle class="st3" cx="136" cy="76.5" r="4.5"/>
	<circle class="st3" cx="213" cy="76.5" r="4.5"/>
	<line class="st4" x1="125.5" y1="69" x2="131" y2="63.5"/>
	<path class="st3" d="M125.5,70c-0.3,0-0.5-0.1-0.7-0.3c-0.4-0.4-0.4-1,0-1.4l0,0l5.5-5.5c0.4-0.4,1-0.4,1.4,0s0.4,1,0,1.4l-5.5,5.5
		C126,69.9,125.8,70,125.5,70z"/>
	<line class="st4" x1="225" y1="69" x2="219.5" y2="63.5"/>
	<path class="st3" d="M225,70c-0.3,0-0.5-0.1-0.7-0.3l-5.5-5.5c-0.4-0.4-0.4-1,0-1.4s1-0.4,1.4,0l5.5,5.5c0.4,0.4,0.4,1,0,1.4l0,0
		C225.5,69.9,225.3,70,225,70z"/>
	<path class="st3" d="M175.6,86.1c-2.7,0-4.9-2-4.9-4.6c-0.1-0.7,0.5-1.3,1.2-1.3s1.4,0.4,1.4,1.1c0,0.1,0,0.1,0,0.2
		c0,1.2,1.1,2.1,2.3,2.1s2.3-1,2.3-2.1c-0.1-0.7,0.5-1.3,1.2-1.3c0.8-0.1,1.4,0.4,1.4,1.1c0,0.1,0,0.1,0,0.2
		C180.5,84.1,178.3,86.1,175.6,86.1z"/>
	<circle class="st5" cx="214.5" cy="75" r="1"/>
	<circle class="st5" cx="137.5" cy="75" r="1"/>
</g>
</svg>
