<svg xmlns="http://www.w3.org/2000/svg" width="424.045" height="445.251" viewBox="0 0 424.045 445.251">
  <g id="ilus_redes" transform="translate(-48 -23.886)">
    <g id="Background_Complete" data-name="Background Complete">
      <path id="Trazado_118" data-name="Trazado 118" d="M182.22,23.886l4.691,8.578,8.578,4.691-8.578,4.691-4.691,8.578-4.691-8.578-8.578-4.691,8.578-4.691Z" fill="#f5f5f5"/>
      <path id="Trazado_119" data-name="Trazado 119" d="M377.87,256.273l3.518,6.433,6.433,3.518-6.433,3.518-3.518,6.433-3.519-6.433-6.433-3.518,6.433-3.518Z" fill="#ebebeb"/>
      <path id="Trazado_120" data-name="Trazado 120" d="M387.822,224.508l1.587,2.9,2.9,1.587-2.9,1.587-1.587,2.9-1.587-2.9-2.9-1.587,2.9-1.587Z" fill="#e0e0e0"/>
      <path id="Trazado_121" data-name="Trazado 121" d="M148.714,27.112l1.587,2.9,2.9,1.587-2.9,1.587-1.587,2.9-1.587-2.9-2.9-1.587,2.9-1.587Z" fill="#e0e0e0"/>
      <g id="Grupo_310" data-name="Grupo 310">
        <g id="Grupo_309" data-name="Grupo 309">
          <path id="Trazado_122" data-name="Trazado 122" d="M69.133,296.758a10.372,10.372,0,0,0,6.056-9.674c-.051-5.729-4.447-10.337-9.819-10.292s-9.685,4.725-9.634,10.454a10.353,10.353,0,0,0,6.323,9.6C47.121,299.3,48.01,315.556,48.01,315.556l35.4-.3S84,298.806,69.133,296.758Z" fill="#e0e0e0"/>
        </g>
      </g>
      <g id="Grupo_311" data-name="Grupo 311">
        <path id="Trazado_123" data-name="Trazado 123" d="M426.847,418.538a5.509,5.509,0,0,0-10.866.324,5.509,5.509,0,0,0-10.868-.228A7.437,7.437,0,0,0,406.448,424a22.141,22.141,0,0,0,3.885,4.106c1.978,1.76,3.806,3.415,5.784,5.175,1.962-1.778,3.631-3.448,5.593-5.226a22,22,0,0,0,3.849-4.14A7.437,7.437,0,0,0,426.847,418.538Z" fill="#ebebeb"/>
      </g>
      <g id="Grupo_314" data-name="Grupo 314">
        <g id="Grupo_312" data-name="Grupo 312">
          <path id="Trazado_124" data-name="Trazado 124" d="M431.688,193.15l3.792-.752,5.99-13.176-1.5-7.571s5.791-1.523,7.067,8.527,1.522,7.378,1.522,7.378,12.457-2.42,13.706-1.544c.908.636,3.7,12.933,5.16,19.613a7.4,7.4,0,0,1-3.694,8.334,5.574,5.574,0,0,1-1.3.446c-3.1.616-19.468,1.237-19.468,1.237l-6.551,1.3Z" fill="#e0e0e0"/>
        </g>
        <g id="Grupo_313" data-name="Grupo 313">
          <path id="Trazado_125" data-name="Trazado 125" d="M420.418,193.225,427.9,218.7l6.5-1.288L429.35,192Z" fill="#e0e0e0"/>
        </g>
      </g>
    </g>
    <g id="Icons">
      <g id="Grupo_315" data-name="Grupo 315">
        <path id="Trazado_126" data-name="Trazado 126" d="M152.809,111.858h0a30.016,30.016,0,0,1-40.121-13.865h0a30.016,30.016,0,0,1,13.864-40.122h0a30.017,30.017,0,0,1,40.122,13.865h0A30.017,30.017,0,0,1,152.809,111.858Z" fill="#e8505b"/>
        <path id="Trazado_127" data-name="Trazado 127" d="M132.263,91.574a.7.7,0,0,0,.7-.908c-.073-.364-.268-1.278-.343-1.662-.1-.523-.228-.66-.764-.9a5.913,5.913,0,0,1-2.972-3.022,9.7,9.7,0,0,1,4.777-13.229c4.945-2.4,9.131-.705,11.094,3.332,2.583,5.309,2.412,10.932-1.076,12.629a3.17,3.17,0,0,1-4.632-2.132c-.58-2.6-.733-5.642-1.552-7.326-.733-1.508-2.154-2.372-3.828-1.557-1.97.958-2.561,3.765-1.234,6.494a7.869,7.869,0,0,0,2.005,2.628l2.512,11.186a22.965,22.965,0,0,0,3.348,7.025.272.272,0,0,0,.489-.107,21.816,21.816,0,0,0,.393-7.643c-.172-.929-1.165-5.692-1.165-5.692a5.865,5.865,0,0,0,5.613.107c5.921-2.879,7.312-10.229,3.8-17.453-2.657-5.462-9.757-8.3-16.789-4.879-8.749,4.255-10.11,12.674-7.566,17.9C126.611,89.541,129.181,91.776,132.263,91.574Z" fill="#fff"/>
      </g>
      <g id="Grupo_317" data-name="Grupo 317">
        <path id="Trazado_128" data-name="Trazado 128" d="M434.013,297.755h0a28.023,28.023,0,0,1-16.175-36.179h0A28.023,28.023,0,0,1,454.017,245.4h0a28.023,28.023,0,0,1,16.175,36.179h0A28.022,28.022,0,0,1,434.013,297.755Z" fill="#e8505b"/>
        <g id="Grupo_316" data-name="Grupo 316">
          <path id="Trazado_129" data-name="Trazado 129" d="M458.644,276.336a15.1,15.1,0,0,0-28.077-11.023c-.084.2-.169.4-.247.609a14.868,14.868,0,0,0-.742,8l-5.409,6.533,8.756.5a15.111,15.111,0,0,0,25.589-4.26C458.559,276.576,458.605,276.457,458.644,276.336Zm-18.721,6.733a12.638,12.638,0,0,1-5.777-4.438l-5.108-.288,3.147-3.8a12.465,12.465,0,0,1,.379-7.759,11.688,11.688,0,0,1,.495-1.119,12.694,12.694,0,0,1,23.522,9.245c-.09.314-.192.622-.311.932A12.653,12.653,0,0,1,439.923,283.069Z" fill="#fff" fill-rule="evenodd"/>
          <path id="Trazado_130" data-name="Trazado 130" d="M449.8,276.6c-.284-.3-1.663-1.785-1.937-2.018s-.482-.381-.844-.126-1.324.772-1.608.921-.5.1-.785-.2a10.03,10.03,0,0,1-2.128-2.764,10.988,10.988,0,0,1-1.015-3.1c-.067-.418.182-.535.419-.641.219-.1.5-.271.751-.4.069-.042.129-.08.188-.118a4.036,4.036,0,0,0,.375-.326.662.662,0,0,0,.2-.61c-.02-.205-.068-2.159-.1-2.956s-.357-.787-.562-.866-.416-.2-.647-.285a1.37,1.37,0,0,0-1.088.076,4.111,4.111,0,0,0-2.3,2.4,4.672,4.672,0,0,0-.269,1.237,8.322,8.322,0,0,0,.327,2.847c.085.29.936,4.714,3.92,7.435s3.17,2.255,3.826,2.438a3.691,3.691,0,0,0,2.953-.74,3.028,3.028,0,0,0,.827-1.552C450.275,277.079,450.076,276.9,449.8,276.6Z" fill="#fff" fill-rule="evenodd"/>
        </g>
      </g>
      <g id="Grupo_318" data-name="Grupo 318">
        <path id="Trazado_131" data-name="Trazado 131" d="M372.9,204.68h0a36.361,36.361,0,0,1-36.362-36.362h0A36.362,36.362,0,0,1,372.9,131.956h0a36.362,36.362,0,0,1,36.362,36.362h0A36.362,36.362,0,0,1,372.9,204.68Z" fill="#e8505b"/>
        <path id="Trazado_132" data-name="Trazado 132" d="M353.523,180.491a22.5,22.5,0,0,0,12.185,3.572c14.76,0,23.1-12.466,22.6-23.648a16.136,16.136,0,0,0,3.967-4.115,15.886,15.886,0,0,1-4.566,1.251,7.968,7.968,0,0,0,3.5-4.4,15.922,15.922,0,0,1-5.048,1.93,7.955,7.955,0,0,0-13.546,7.251,22.561,22.561,0,0,1-16.385-8.306,7.959,7.959,0,0,0,2.46,10.614,7.919,7.919,0,0,1-3.6-.995,7.958,7.958,0,0,0,6.376,7.9,7.95,7.95,0,0,1-3.588.135,7.952,7.952,0,0,0,7.425,5.522A15.979,15.979,0,0,1,353.523,180.491Z" fill="#fff"/>
      </g>
      <g id="Grupo_320" data-name="Grupo 320">
        <path id="Trazado_133" data-name="Trazado 133" d="M108.032,407.613h0A36.8,36.8,0,0,1,63.7,380.341h0A36.8,36.8,0,0,1,90.974,336.01h0A36.8,36.8,0,0,1,135.3,363.283h0A36.8,36.8,0,0,1,108.032,407.613Z" fill="#455a64"/>
        <g id="Grupo_319" data-name="Grupo 319">
          <path id="Trazado_134" data-name="Trazado 134" d="M95.669,355.718c5.242-1.248,5.867-1.376,7.959-1.775a11.185,11.185,0,0,1,3.807-.192,6.685,6.685,0,0,1,4.613,2.838,11.2,11.2,0,0,1,1.544,3.484c.587,2.048.756,2.664,2,7.9s1.376,5.867,1.775,7.96a11.188,11.188,0,0,1,.193,3.806,6.68,6.68,0,0,1-2.838,4.612,11.162,11.162,0,0,1-3.484,1.545c-2.048.587-2.663.755-7.9,2s-5.868,1.376-7.96,1.776a11.144,11.144,0,0,1-3.806.191,6.679,6.679,0,0,1-4.613-2.837,11.18,11.18,0,0,1-1.544-3.484c-.588-2.048-.756-2.664-2-7.9s-1.377-5.867-1.776-7.96a11.179,11.179,0,0,1-.192-3.806,6.685,6.685,0,0,1,2.838-4.613,11.18,11.18,0,0,1,3.484-1.544c2.047-.588,2.664-.756,7.9-2.005m-.842-3.536c-5.332,1.27-6,1.452-8.066,2.046a14.8,14.8,0,0,0-4.547,2.048,10.309,10.309,0,0,0-4.373,7.109,14.786,14.786,0,0,0,.222,4.982c.4,2.116.54,2.79,1.81,8.121s1.452,5.995,2.046,8.066a14.794,14.794,0,0,0,2.048,4.547,10.316,10.316,0,0,0,7.108,4.374,14.849,14.849,0,0,0,4.983-.223c2.116-.4,2.79-.54,8.121-1.81s5.994-1.452,8.066-2.046a14.8,14.8,0,0,0,4.547-2.048,10.315,10.315,0,0,0,4.374-7.109,14.844,14.844,0,0,0-.223-4.982c-.4-2.116-.54-2.79-1.81-8.121s-1.452-5.995-2.046-8.066a14.8,14.8,0,0,0-2.048-4.547,10.315,10.315,0,0,0-7.109-4.374,14.843,14.843,0,0,0-4.982.223c-2.117.4-2.79.54-8.121,1.81" fill="#fff"/>
          <path id="Trazado_135" data-name="Trazado 135" d="M97.1,361.732a10.362,10.362,0,1,0,12.481,7.679A10.361,10.361,0,0,0,97.1,361.732m3.96,16.623a6.726,6.726,0,1,1,4.984-8.1,6.726,6.726,0,0,1-4.984,8.1" fill="#fff"/>
          <path id="Trazado_136" data-name="Trazado 136" d="M109.841,358.276a2.422,2.422,0,1,1-2.917-1.8,2.422,2.422,0,0,1,2.917,1.8" fill="#fff"/>
        </g>
      </g>
      <g id="Grupo_321" data-name="Grupo 321">
        <path id="Trazado_137" data-name="Trazado 137" d="M402.406,381.623h0A20.7,20.7,0,0,1,377.6,366.079h0a20.7,20.7,0,0,1,15.543-24.808h0a20.7,20.7,0,0,1,24.808,15.544h0A20.7,20.7,0,0,1,402.406,381.623Z" fill="#455a64"/>
        <path id="Trazado_138" data-name="Trazado 138" d="M397.5,374.348l4.912-1.127-2.824-12.3,3.427-.787-.581-4.2-3.791.871-.539-2.346c-.223-.97-.116-1.4.823-1.614l2.658-.611-.981-4.273-3.4.78c-3.655.84-4.933,2.828-4.226,5.908l.754,3.284-2.554.586.957,4.169,2.554-.586Z" fill="#fff"/>
      </g>
    </g>
    <g id="Device">
      <g id="Grupo_331" data-name="Grupo 331">
        <g id="Grupo_330" data-name="Grupo 330">
          <g id="Grupo_329" data-name="Grupo 329">
            <g id="Grupo_328" data-name="Grupo 328">
              <g id="Grupo_324" data-name="Grupo 324">
                <g id="Grupo_323" data-name="Grupo 323">
                  <g id="Grupo_322" data-name="Grupo 322">
                    <path id="Trazado_139" data-name="Trazado 139" d="M328.268,469.137l-137.887-.082a30.034,30.034,0,0,1-30.018-30.041l.068-345.685A30.037,30.037,0,0,1,190.484,63.3l137.888.081a30.036,30.036,0,0,1,30.017,30.042l-.067,345.686A30.037,30.037,0,0,1,328.268,469.137Z" fill="#263238"/>
                  </g>
                </g>
              </g>
              <g id="Grupo_327" data-name="Grupo 327">
                <g id="Grupo_326" data-name="Grupo 326">
                  <g id="Grupo_325" data-name="Grupo 325">
                    <path id="Trazado_140" data-name="Trazado 140" d="M328.225,75.606l-26.734-.015A6.64,6.64,0,0,0,295,82.373l0,4.849A6.641,6.641,0,0,1,288.505,94l-52.111-.031a6.646,6.646,0,0,1-6.49-6.79V82.335a6.648,6.648,0,0,0-6.491-6.79l-9.4-.006-23.4-.014a21.036,21.036,0,0,0-21.047,21.032L169.5,433.971a21.035,21.035,0,0,0,21.023,21.041l137.612.08a21.036,21.036,0,0,0,21.047-21.031l.066-337.415A21.035,21.035,0,0,0,328.225,75.606Z" fill="#fff"/>
                  </g>
                </g>
              </g>
            </g>
          </g>
        </g>
      </g>
      <rect id="Rectángulo_43" data-name="Rectángulo 43" width="79.78" height="125.286" rx="11.955" transform="translate(176.926 140.015)" fill="#ebebeb"/>
      <rect id="Rectángulo_44" data-name="Rectángulo 44" width="166.739" height="125.823" rx="11.955" transform="translate(176.926 321.449)" fill="#ebebeb" opacity="0.4"/>
      <rect id="Rectángulo_45" data-name="Rectángulo 45" width="79.78" height="72.439" rx="11.955" transform="translate(263.885 140.015)" fill="#ebebeb"/>
      <rect id="Rectángulo_46" data-name="Rectángulo 46" width="62.458" height="9.93" rx="1" transform="translate(180.926 276.232)" fill="#e0e0e0"/>
      <rect id="Rectángulo_47" data-name="Rectángulo 47" width="26.024" height="9.93" rx="1" transform="translate(180.926 289.677)" fill="#e0e0e0"/>
      <rect id="Rectángulo_48" data-name="Rectángulo 48" width="62.458" height="9.93" rx="1" transform="translate(267.885 222.516)" fill="#e0e0e0"/>
      <rect id="Rectángulo_49" data-name="Rectángulo 49" width="48.342" height="9.93" rx="1" transform="translate(267.885 235.961)" fill="#e0e0e0"/>
      <rect id="Rectángulo_50" data-name="Rectángulo 50" width="38.311" height="14.343" rx="4.717" transform="translate(241.089 110.426)" fill="#e0e0e0"/>
      <path id="Trazado_141" data-name="Trazado 141" d="M189.052,112.666l-3.9,3.9a.827.827,0,0,0,0,1.17l3.9,3.9a.827.827,0,1,0,1.17-1.17l-3.316-3.315,3.316-3.316a.827.827,0,1,0-1.17-1.17Z" fill="#e0e0e0"/>
    </g>
    <g id="Megaphone">
      <g id="Grupo_358" data-name="Grupo 358">
        <g id="Grupo_352" data-name="Grupo 352">
          <g id="Grupo_350" data-name="Grupo 350">
            <g id="Grupo_332" data-name="Grupo 332">
              <path id="Trazado_142" data-name="Trazado 142" d="M266.043,377.3l3.538-11.887c.617-2.578,1.437-5.619,2.54-9.089.992-3.119,3.536-6.4,5.856-8.756,3.612-3.673,5.329-3.7,7.757-5.647.221-.142.467-.344.676-.457a3.828,3.828,0,0,0,1.18-1.021c2.092-2.263.083-5.765-4.165-5.432-3.2.251-8.415,1.166-16.9,9.916-.106.133-.217.244-.321.38-4.452,5.786-8.632-10.732-9.386-16.88a6.443,6.443,0,0,0-8.709-5l-20.661,9.664a9.644,9.644,0,0,0-6.031.2,6.141,6.141,0,0,0-3.936,7.289l8.38,33.451-24.613,81.893H254.3Z" fill="#ffbe9d"/>
            </g>
            <g id="Grupo_348" data-name="Grupo 348">
              <g id="Grupo_340" data-name="Grupo 340">
                <g id="Grupo_334" data-name="Grupo 334">
                  <g id="Grupo_333" data-name="Grupo 333">
                    <path id="Trazado_143" data-name="Trazado 143" d="M306.8,302.084l-16.4,32.133-8.2-2.278-41.215,33.527a8.349,8.349,0,0,1-11.6-1.031L213.694,346.2s31.641-13.631,37.493-24.913-.91-13.842-.91-13.842l14.892-16.923Z" fill="#e8505b"/>
                  </g>
                </g>
                <g id="Grupo_335" data-name="Grupo 335">
                  <path id="Trazado_144" data-name="Trazado 144" d="M285.527,236.443s-24-5.309-57.783-37.792-49.65-75.617-53.785-75.407-22.188-8.171-56.524,66.52-20.811,92.036-13.979,91.9,53.227-13.069,82.2-9.775,66.225,18.4,66.225,18.4Z" fill="#e8505b"/>
                </g>
                <g id="Grupo_336" data-name="Grupo 336">
                  <path id="Trazado_145" data-name="Trazado 145" d="M336.52,277.155l-8.189,15.57-3.669,6.974a20.32,20.32,0,0,1-26.488,9l-51.449-17.926,29.963-68.4,51.4,27.393A20.322,20.322,0,0,1,336.52,277.155Z" fill="#e8505b"/>
                </g>
                <g id="Grupo_337" data-name="Grupo 337" opacity="0.4">
                  <path id="Trazado_146" data-name="Trazado 146" d="M336.52,277.155l-8.189,15.57-3.669,6.974a20.32,20.32,0,0,1-26.488,9l-51.449-17.926,29.963-68.4,51.4,27.393A20.322,20.322,0,0,1,336.52,277.155Z"/>
                </g>
                <g id="Grupo_338" data-name="Grupo 338">
                  <path id="Trazado_147" data-name="Trazado 147" d="M120.209,191.124c-18.273,40.46-25.88,76.515-16.99,80.531s30.911-25.531,49.185-65.991,25.88-76.515,16.99-80.53S138.484,150.663,120.209,191.124Z" fill="#e8505b"/>
                </g>
                <g id="Grupo_339" data-name="Grupo 339" opacity="0.5">
                  <path id="Trazado_148" data-name="Trazado 148" d="M120.209,191.124c-18.273,40.46-25.88,76.515-16.99,80.531s30.911-25.531,49.185-65.991,25.88-76.515,16.99-80.53S138.484,150.663,120.209,191.124Z"/>
                </g>
              </g>
              <g id="Grupo_341" data-name="Grupo 341">
                <path id="Trazado_149" data-name="Trazado 149" d="M340.936,299.652l-13.945-4.38,8.629-16.408,10.458,6.5Z" fill="#e8505b"/>
              </g>
              <g id="Grupo_342" data-name="Grupo 342" opacity="0.6">
                <path id="Trazado_150" data-name="Trazado 150" d="M335.62,278.865l-8.629,16.408,2.865.9,7.016-16.531Z"/>
              </g>
              <g id="Grupo_343" data-name="Grupo 343">
                <path id="Trazado_151" data-name="Trazado 151" d="M326.012,282.65c-.2.451-7.165-2.254-15.543-6.042s-15.013-7.225-14.808-7.675,7.161,2.255,15.544,6.043S326.214,282.2,326.012,282.65Z" fill="#e8505b"/>
              </g>
              <g id="Grupo_344" data-name="Grupo 344">
                <path id="Trazado_152" data-name="Trazado 152" d="M330.3,272.878c-.22.445-6.517-2.21-14.067-5.928s-13.495-7.093-13.275-7.538,6.513,2.212,14.066,5.931S330.518,272.434,330.3,272.878Z" fill="#e8505b"/>
              </g>
              <g id="Grupo_345" data-name="Grupo 345">
                <path id="Trazado_153" data-name="Trazado 153" d="M320.6,292.9c-.074.238-1.73-.145-4.373-.961-1.32-.408-2.884-.924-4.615-1.523-1.719-.623-3.5-1.526-5.417-2.392-7.629-3.542-13.454-7.009-13.263-7.42.225-.485,6.452,2.285,14.01,5.792,1.9.859,3.655,1.8,5.313,2.5,1.664.673,3.157,1.3,4.4,1.854C319.155,291.856,320.674,292.663,320.6,292.9Z" fill="#e8505b"/>
              </g>
              <g id="Grupo_346" data-name="Grupo 346">
                <path id="Trazado_154" data-name="Trazado 154" d="M157.465,182.126s-20.863-12.937-32.278,15.25S135.723,230.2,135.723,230.2A187.8,187.8,0,0,0,157.465,182.126Z" fill="#e8505b"/>
              </g>
              <g id="Grupo_347" data-name="Grupo 347" opacity="0.5">
                <path id="Trazado_155" data-name="Trazado 155" d="M179.653,148.533c.122.021-.174,1.935-.817,5.385-.66,3.445-1.593,8.445-2.931,14.583-.882,3.024-1.846,6.325-2.88,9.864q-.784,2.661-1.621,5.494-.42,1.418-.851,2.872c-.312.963-.718,1.908-1.081,2.881-1.5,3.878-3.079,7.946-4.713,12.161q-.615,1.583-1.242,3.19c-.406,1.077-.98,2.09-1.467,3.15q-1.53,3.154-3.1,6.394t-3.111,6.392c-.532,1.039-.976,2.117-1.57,3.1l-1.74,2.949-6.648,11.226c-.542.887-1.032,1.79-1.6,2.63q-.877,1.242-1.734,2.45-1.712,2.41-3.322,4.679c-2.146,3-4.148,5.8-5.981,8.37-3.989,4.834-7.335,8.647-9.633,11.294s-3.636,4.054-3.731,3.975a31.8,31.8,0,0,1,3.193-4.419l9.191-11.653,5.757-8.436q1.557-2.27,3.218-4.686l1.685-2.447c.549-.841,1.028-1.746,1.555-2.633L151,226.1l1.714-2.936c.587-.98,1.023-2.052,1.55-3.086q1.518-3.134,3.079-6.351l3.087-6.345c.487-1.051,1.061-2.057,1.467-3.124s.835-2.116,1.248-3.161c1.656-4.174,3.255-8.2,4.778-12.042.371-.963.786-1.9,1.108-2.848q.447-1.441.883-2.842.873-2.8,1.7-5.434c1.1-3.5,2.131-6.761,3.075-9.749l3.471-14.4A32.211,32.211,0,0,1,179.653,148.533Z"/>
              </g>
            </g>
            <g id="Grupo_349" data-name="Grupo 349" opacity="0.4">
              <path id="Trazado_156" data-name="Trazado 156" d="M218.693,343.961c1.9,3.455,3.845,6.964,6.662,9.725s6.684,4.717,10.608,4.322,7.643-3.655,7.685-7.6c1.884,1.416,4.771.649,6.331-1.117s2.067-4.219,2.254-6.567c2.558,1.509,6.116.312,7.823-2.118a10.115,10.115,0,0,0,.986-8.557,29.963,29.963,0,0,0-4.107-7.866c1.969.159,4.056.3,5.818-.6s2.953-3.224,1.924-4.912a4.894,4.894,0,0,0-2.868-1.829c-3.087-.966-5.253-1.74-8.466-1.367-.747.008,1.286,8.476-18.884,20.059C222.552,342.376,218.693,343.961,218.693,343.961Z"/>
            </g>
          </g>
          <g id="Grupo_351" data-name="Grupo 351">
            <path id="Trazado_157" data-name="Trazado 157" d="M264.113,356.2c-.013.093-1.356-.165-3.532-.106a19.968,19.968,0,0,0-14.824,7.107c-1.408,1.66-2.048,2.868-2.129,2.82a3.088,3.088,0,0,1,.395-.875,15.972,15.972,0,0,1,1.449-2.178,18.894,18.894,0,0,1,15.106-7.242,16.1,16.1,0,0,1,2.606.233A3.078,3.078,0,0,1,264.113,356.2Z" fill="#eb996e"/>
          </g>
          <path id="Trazado_158" data-name="Trazado 158" d="M220.008,338.59c3.249,3.121,5.471,6.567,8.879,9.71,1.548,1.428,3.954,4.134,6.03,4.494s3.4.084,4.227-1.856c.665-1.571-.53-3.718-1.355-5.013-2.171-3.4-4.247-6.068-5.873-8.716-.762-1.24.224-1.5.584-.922,1.564,1.621,3.9,3.026,5.3,4.791,1.918,2.417,2.266,5.617,7.285,4.605a4.523,4.523,0,0,0,1.863-.774c1.889-1.446,1.968-3.96,1.173-5.974a16.352,16.352,0,0,0-2.794-4.227c2.136,2.412,4.468,4.952,7.865,5.226a4.679,4.679,0,0,0,4.756-2.574c1.005-2.282-.436-4.488-1.882-6.272a65.327,65.327,0,0,0-8.529-8.713,6.489,6.489,0,0,0-4.146-1.537c-1.756-.012-3.955.319-5.041,1.847a6.819,6.819,0,0,0-1.364,5.227s-4.406-2.234-7.946.1a11.228,11.228,0,0,0-4.416,6.352Z" fill="#ffbe9d"/>
          <path id="Trazado_159" data-name="Trazado 159" d="M243.453,319.87a5.278,5.278,0,0,1-.623-5.96c.749-1.468,1.695-2.895,2.653-3.219,4.191-1.414,22.5,1.754,22.335,5.819-.171,4.173-1.5,6.009-11.442,4.574-1.748-.252-4.491-.6-4.491-.6l-2.4,3.6Z" fill="#ffbe9d"/>
        </g>
        <g id="Grupo_353" data-name="Grupo 353">
          <path id="Trazado_160" data-name="Trazado 160" d="M246.732,336.887a24.039,24.039,0,0,0-10.09-9.148,5.852,5.852,0,0,1,1.938.683,17.391,17.391,0,0,1,7.283,6.6A5.851,5.851,0,0,1,246.732,336.887Z" fill="#eb996e"/>
        </g>
        <g id="Grupo_354" data-name="Grupo 354">
          <path id="Trazado_161" data-name="Trazado 161" d="M249.814,324.4c-.092.085-1.3-.9-2.949-1.91a20.73,20.73,0,0,0-2.149-1.185c-.566-.266-.941-.339-.94-.417s.431-.12,1.067.072a9.845,9.845,0,0,1,2.3,1.087C248.829,323.079,249.936,324.289,249.814,324.4Z" fill="#eb996e"/>
        </g>
        <g id="Grupo_355" data-name="Grupo 355">
          <path id="Trazado_162" data-name="Trazado 162" d="M252.888,320.621a7.912,7.912,0,0,1-3.527-.4,6.446,6.446,0,0,1-2.257-1.183c-.5-.428-.712-.785-.663-.828a14.762,14.762,0,0,0,3.074,1.513C251.331,320.253,252.915,320.449,252.888,320.621Z" fill="#eb996e"/>
        </g>
        <g id="Grupo_356" data-name="Grupo 356">
          <path id="Trazado_163" data-name="Trazado 163" d="M235.091,341.918a12.753,12.753,0,0,1-1.669-2.17,19.69,19.69,0,0,0-4.275-4.858,8.616,8.616,0,0,0-6.054-1.6,11.009,11.009,0,0,0-2.55.811c-.018-.023.174-.209.584-.462a5.7,5.7,0,0,1,1.907-.712,8.507,8.507,0,0,1,6.417,1.544,17.4,17.4,0,0,1,4.278,5.078A16.267,16.267,0,0,1,235.091,341.918Z" fill="#eb996e"/>
        </g>
        <g id="Grupo_357" data-name="Grupo 357">
          <path id="Trazado_164" data-name="Trazado 164" d="M249.1,382.418a55.031,55.031,0,0,1-7.485,1.076,55.071,55.071,0,0,1-7.541.558,55,55,0,0,1,7.485-1.076A55.07,55.07,0,0,1,249.1,382.418Z" fill="#eb996e"/>
        </g>
      </g>
    </g>
    <g id="Stars">
      <g id="Grupo_359" data-name="Grupo 359">
        <path id="Trazado_165" data-name="Trazado 165" d="M406.632,49.844l1.129,2.064,2.064,1.129-2.064,1.129-1.129,2.064L405.5,54.166l-2.064-1.129,2.064-1.129Z" fill="#e8505b"/>
        <path id="Trazado_166" data-name="Trazado 166" d="M430.236,101.014l1.129,2.064,2.064,1.129-2.064,1.129-1.129,2.064-1.129-2.064-2.064-1.129,2.064-1.129Z" fill="#e8505b"/>
        <path id="Trazado_167" data-name="Trazado 167" d="M62.691,124.34l2.693,4.924,4.923,2.693-4.923,2.692-2.693,4.924L60,134.648l-4.923-2.692L60,129.263Z" fill="#e8505b"/>
        <path id="Trazado_168" data-name="Trazado 168" d="M399.317,68.152l4.064,7.431,7.431,4.064-7.431,4.064-4.064,7.431-4.064-7.431-7.431-4.064,7.431-4.064Z" fill="#e8505b"/>
        <path id="Trazado_169" data-name="Trazado 169" d="M77.722,148.533,82.9,158l9.471,5.18-9.471,5.18-5.18,9.471-5.18-9.471-9.472-5.18L72.542,158Z" fill="#e8505b"/>
        <path id="Trazado_170" data-name="Trazado 170" d="M436.658,318.565l2.6,4.756,4.756,2.6-4.756,2.6-2.6,4.756-2.6-4.756-4.756-2.6,4.756-2.6Z" fill="#e8505b"/>
      </g>
    </g>
  </g>
</svg>
