<svg xmlns="http://www.w3.org/2000/svg" width="432.007" height="472.359" viewBox="0 0 432.007 472.359">
  <g id="ilus_tarjeta" transform="translate(-35.679 -9.5)">
    <g id="Background_2" data-name="Background 2">
      <g id="Grupo_14" data-name="Grupo 14">
        <g id="Grupo_11" data-name="Grupo 11">
          <path id="Trazado_26" data-name="Trazado 26" d="M355.845,211.819a39.779,39.779,0,1,1-8.1-55.6A39.736,39.736,0,0,1,355.845,211.819Z" fill="#f0f0f0"/>
        </g>
        <g id="Grupo_13" data-name="Grupo 13">
          <g id="Grupo_12" data-name="Grupo 12">
            <path id="Trazado_27" data-name="Trazado 27" d="M315.9,204.54l-3.1,4.275-3.816-2.769L312,201.887c-3.612-2.97-6.38-6.781-7.289-9.945l5.475-3.135a19.064,19.064,0,0,0,5.44,8.08l4.622-6.375c-3.49-4.1-7.2-8.946-3.239-14.4,2.934-4.046,8.391-5.388,14.919-1.7L335,170.169l3.818,2.768L335.8,177.1a21.324,21.324,0,0,1,6.059,7.946l-5.312,3.312a19.323,19.323,0,0,0-4.4-6.221l-4.706,6.49c3.517,4.063,7.149,8.853,3.247,14.234C327.813,206.829,322.421,208.16,315.9,204.54Zm8.418-19.638,3.929-5.42c-2.354-1.009-3.958-.482-4.872.777C322.41,181.594,323.028,183.151,324.321,184.9Zm-.106,13.96c.969-1.337.388-2.864-.837-4.628l-3.82,5.267C321.771,200.466,323.33,200.083,324.215,198.862Z" fill="#e0e0e0"/>
          </g>
        </g>
      </g>
      <g id="Grupo_18" data-name="Grupo 18" transform="translate(-77.977 31.261) rotate(-19)">
        <g id="Grupo_15" data-name="Grupo 15">
          <path id="Trazado_28" data-name="Trazado 28" d="M189.307,250.386a57.3,57.3,0,1,1-64.928-48.333A57.239,57.239,0,0,1,189.307,250.386Z" fill="#f0f0f0"/>
        </g>
        <g id="Grupo_17" data-name="Grupo 17">
          <g id="Grupo_16" data-name="Grupo 16">
            <path id="Trazado_29" data-name="Trazado 29" d="M141.235,283.692l1.2,7.512-6.706,1.071-1.17-7.308c-6.7.66-13.407-.4-17.556-2.691l2.376-8.772a27.449,27.449,0,0,0,13.773,2.678l-1.794-11.2c-7.733-.616-16.445-1.767-17.98-11.357-1.138-7.109,3.048-14.037,13.449-16.94l-1.191-7.445,6.706-1.074,1.17,7.311a30.721,30.721,0,0,1,14.267,1.91l-2.031,8.786a27.858,27.858,0,0,0-10.819-1.846l1.826,11.4c7.722.55,16.3,1.724,17.815,11.177C155.69,273.882,151.559,280.733,141.235,283.692Zm-11.45-28.567-1.526-9.521c-3.425,1.373-4.521,3.544-4.168,5.757C124.468,253.707,126.683,254.66,129.785,255.125Zm14.122,14.316c-.376-2.349-2.524-3.31-5.57-3.856l1.482,9.254C143.054,273.566,144.25,271.586,143.907,269.441Z" fill="#e0e0e0"/>
          </g>
        </g>
      </g>
      <g id="Grupo_22" data-name="Grupo 22">
        <g id="Grupo_19" data-name="Grupo 19">
          <path id="Trazado_30" data-name="Trazado 30" d="M313.634,52.9a36.762,36.762,0,1,1-29.447-42.772A36.722,36.722,0,0,1,313.634,52.9Z" fill="#f0f0f0"/>
        </g>
        <g id="Grupo_21" data-name="Grupo 21">
          <g id="Grupo_20" data-name="Grupo 20">
            <path id="Trazado_31" data-name="Trazado 31" d="M277.554,63.193,276.733,68l-4.3-.735.8-4.68c-4.207-.985-8.06-3.012-10.106-5.263l3.256-4.837a17.6,17.6,0,0,0,7.811,4.473l1.225-7.173c-4.569-1.972-9.623-4.471-8.573-10.613.778-4.553,4.752-7.9,11.669-7.509l.814-4.769,4.3.734-.8,4.682a19.7,19.7,0,0,1,8.27,4.109l-3.049,4.916a17.874,17.874,0,0,0-6.19-3.357l-1.247,7.3c4.576,1.929,9.544,4.415,8.51,10.47C288.361,60.222,284.436,63.529,277.554,63.193ZM276.5,43.476l1.041-6.1c-2.364.126-3.478,1.219-3.721,2.636C273.567,41.516,274.716,42.554,276.5,43.476Zm5.619,11.614c.257-1.505-.849-2.532-2.586-3.493l-1.013,5.927C280.752,57.419,281.887,56.464,282.122,55.09Z" fill="#e0e0e0"/>
          </g>
        </g>
      </g>
    </g>
    <g id="Plant" transform="translate(5.153 -30.918)">
      <g id="Grupo_46" data-name="Grupo 46" transform="translate(30.526 301.514)">
        <g id="Grupo_25" data-name="Grupo 25">
          <g id="Grupo_24" data-name="Grupo 24">
            <g id="Grupo_23" data-name="Grupo 23">
              <path id="Trazado_32" data-name="Trazado 32" d="M125.956,458.936c22.819-15.942,28-45.533,27.093-72.134-.151-4.44.337-9.121-1.775-13.017s-7.041-6.558-11.016-4.687c-3.3,1.552-4.735,5.388-6.58,8.559a25.978,25.978,0,0,1-10.413,9.947c-2.828,1.466-6.325,2.364-9.117.824-3.83-2.113-4.281-7.4-4.254-11.821q.078-12.347.154-24.692c.028-4.415.041-8.924-1.333-13.116s-4.409-8.085-8.609-9.262-9.4,1.246-10.283,5.569c-.37,1.8,0,3.665-.127,5.5s-.976,3.863-2.717,4.372c-1.763.518-3.53-.734-4.849-2.027-4.559-4.458-7.652-10.2-10.542-15.915s-5.7-11.56-9.833-16.424-9.857-8.717-16.18-9.075-13.064,3.546-14.662,9.754c-1.6,6.225,2.029,12.542,5.982,17.582a98.564,98.564,0,0,0,20.523,19.563c1.393.989,2.9,2.057,3.434,3.692.959,2.945-1.83,5.869-4.737,6.836-3.292,1.1-6.864.754-10.306,1.16s-7.174,1.924-8.476,5.178c-1.81,4.513,1.965,9.245,5.68,12.344a84.444,84.444,0,0,0,24.992,14.427c3.248,1.188,6.668,2.231,9.287,4.513s4.2,6.252,2.618,9.362-5.646,4.11-9.05,3.478-6.447-2.478-9.691-3.7c-6.069-2.292-13.905-1.872-17.793,3.372-2.554,3.447-2.78,8.248-1.487,12.358s3.912,7.65,6.694,10.913c9.727,11.412,22.179,20.6,36.257,25.481s27.122,6.2,41.114,1.086" transform="translate(-30.526 -301.514)" fill="#e8505b"/>
            </g>
          </g>
        </g>
        <g id="Grupo_29" data-name="Grupo 29" transform="translate(6.767 3.719)">
          <g id="Grupo_28" data-name="Grupo 28">
            <g id="Grupo_27" data-name="Grupo 27">
              <g id="Grupo_26" data-name="Grupo 26">
                <path id="Trazado_33" data-name="Trazado 33" d="M36.143,304.6a3.209,3.209,0,0,0,.429.42l1.311,1.169c1.157,1.022,2.862,2.531,5,4.533a165.742,165.742,0,0,1,16.868,18.206c3.287,4.093,6.7,8.727,10.277,13.768s7.345,10.47,11.1,16.316a199.905,199.905,0,0,1,10.9,18.874c1.7,3.376,3.219,6.909,4.769,10.51s3.1,7.256,4.686,10.952a405.734,405.734,0,0,1,15.738,42.5,197.265,197.265,0,0,1,7.359,36.236A144.417,144.417,0,0,1,125,503.024c-.231,2.94-.455,5.222-.664,6.76l-.2,1.757a3.765,3.765,0,0,0-.043.6,3.252,3.252,0,0,0,.127-.592c.069-.433.164-1.011.283-1.745.26-1.535.537-3.815.817-6.759a138.012,138.012,0,0,0-.159-25.025,193.789,193.789,0,0,0-7.215-36.4,395.717,395.717,0,0,0-15.708-42.6L97.539,388.07c-1.548-3.592-3.083-7.156-4.8-10.546A197.491,197.491,0,0,0,81.76,358.6c-3.783-5.851-7.587-11.265-11.181-16.3s-7.056-9.656-10.379-13.738a156.729,156.729,0,0,0-17.1-18.074c-2.177-1.97-3.917-3.441-5.111-4.423l-1.363-1.107A3.256,3.256,0,0,0,36.143,304.6Z" transform="translate(-36.143 -304.6)" fill="#263238"/>
              </g>
            </g>
          </g>
        </g>
        <g id="Grupo_33" data-name="Grupo 33" transform="translate(63.109 28.024)">
          <g id="Grupo_32" data-name="Grupo 32">
            <g id="Grupo_31" data-name="Grupo 31">
              <g id="Grupo_30" data-name="Grupo 30">
                <path id="Trazado_34" data-name="Trazado 34" d="M82.929,373.359a8.9,8.9,0,0,0,.431-1.883c.233-1.22.51-3,.819-5.2.624-4.4,1.28-10.5,1.976-17.228s1.437-12.807,2.127-17.184c.339-2.188.63-3.957.848-5.177a8.886,8.886,0,0,0,.247-1.917,8.754,8.754,0,0,0-.555,1.851c-.313,1.2-.693,2.962-1.1,5.145-.839,4.365-1.672,10.454-2.369,17.194-.671,6.643-1.277,12.652-1.74,17.244-.222,2.074-.411,3.821-.563,5.222A8.832,8.832,0,0,0,82.929,373.359Z" transform="translate(-82.905 -324.774)" fill="#263238"/>
              </g>
            </g>
          </g>
        </g>
        <g id="Grupo_37" data-name="Grupo 37" transform="translate(6.355 65.94)">
          <g id="Grupo_36" data-name="Grupo 36">
            <g id="Grupo_35" data-name="Grupo 35">
              <g id="Grupo_34" data-name="Grupo 34">
                <path id="Trazado_35" data-name="Trazado 35" d="M35.8,356.3a12.164,12.164,0,0,0,2.264.271c1.458.13,3.566.306,6.164.607,5.2.561,12.357,1.588,20.2,3.066,7.846,1.494,14.888,3.147,19.947,4.49,2.536.653,4.572,1.237,5.983,1.633a12.208,12.208,0,0,0,2.216.543,12.168,12.168,0,0,0-2.122-.849c-1.384-.489-3.4-1.16-5.925-1.888-5.035-1.49-12.081-3.239-19.951-4.737a200.361,200.361,0,0,0-20.3-2.836c-2.615-.228-4.736-.317-6.2-.347A11.929,11.929,0,0,0,35.8,356.3Z" transform="translate(-35.801 -356.243)" fill="#263238"/>
              </g>
            </g>
          </g>
        </g>
        <g id="Grupo_41" data-name="Grupo 41" transform="translate(87.86 67.188)">
          <g id="Grupo_40" data-name="Grupo 40">
            <g id="Grupo_39" data-name="Grupo 39">
              <g id="Grupo_38" data-name="Grupo 38">
                <path id="Trazado_36" data-name="Trazado 36" d="M103.453,429.794a2.844,2.844,0,0,0,.389-.693c.263-.554.583-1.233.971-2.053.835-1.788,1.977-4.406,3.343-7.659,2.74-6.5,6.241-15.608,9.969-25.705s7.141-19.226,9.741-25.778c1.274-3.186,2.322-5.8,3.1-7.752.333-.846.607-1.542.833-2.115a2.928,2.928,0,0,0,.239-.76,3.015,3.015,0,0,0-.389.694l-.971,2.052c-.835,1.788-1.976,4.406-3.343,7.659-2.74,6.5-6.24,15.608-9.969,25.709s-7.141,19.222-9.74,25.775c-1.275,3.183-2.323,5.8-3.1,7.751-.334.846-.607,1.543-.833,2.115A3,3,0,0,0,103.453,429.794Z" transform="translate(-103.448 -357.279)" fill="#263238"/>
              </g>
            </g>
          </g>
        </g>
        <g id="Grupo_45" data-name="Grupo 45" transform="translate(12.417 115.379)">
          <g id="Grupo_44" data-name="Grupo 44">
            <g id="Grupo_43" data-name="Grupo 43">
              <g id="Grupo_42" data-name="Grupo 42">
                <path id="Trazado_37" data-name="Trazado 37" d="M40.832,397.284a3.029,3.029,0,0,0,.748.308c.59.2,1.314.44,2.192.735l8.08,2.618c6.821,2.212,16.208,5.376,26.575,8.886s19.8,6.592,26.664,8.663c3.435,1.037,6.222,1.848,8.159,2.369.9.235,1.634.429,2.234.588a2.945,2.945,0,0,0,.8.149,3.057,3.057,0,0,0-.748-.31l-2.192-.733-8.078-2.618c-6.821-2.212-16.209-5.377-26.579-8.888s-19.792-6.591-26.661-8.662c-3.435-1.037-6.222-1.848-8.16-2.369l-2.235-.588A2.932,2.932,0,0,0,40.832,397.284Z" transform="translate(-40.832 -397.277)" fill="#263238"/>
              </g>
            </g>
          </g>
        </g>
      </g>
    </g>
    <g id="Device">
      <g id="Grupo_53" data-name="Grupo 53">
        <g id="Grupo_52" data-name="Grupo 52">
          <g id="Grupo_51" data-name="Grupo 51">
            <g id="Grupo_48" data-name="Grupo 48">
              <g id="Grupo_47" data-name="Grupo 47">
                <path id="Trazado_38" data-name="Trazado 38" d="M289.638,422.175l-122.454-.566a26.674,26.674,0,0,1-26.552-26.786l1.3-306.995a26.674,26.674,0,0,1,26.8-26.562l122.454.565a26.676,26.676,0,0,1,26.551,26.787l-1.3,307A26.673,26.673,0,0,1,289.638,422.175Z" fill="#263238"/>
              </g>
            </g>
            <g id="Grupo_50" data-name="Grupo 50">
              <g id="Grupo_49" data-name="Grupo 49">
                <path id="Trazado_39" data-name="Trazado 39" d="M291.007,72.426l-23.742-.109a5.9,5.9,0,0,0-5.79,6l-.019,4.307a5.9,5.9,0,0,1-5.79,6l-46.278-.214a5.9,5.9,0,0,1-5.739-6.053l.018-4.307A5.9,5.9,0,0,0,197.927,72l-8.35-.039-20.78-.1a18.683,18.683,0,0,0-18.767,18.6l-1.266,299.649a18.681,18.681,0,0,0,18.594,18.761l122.21.564a18.682,18.682,0,0,0,18.767-18.6L309.6,91.186A18.682,18.682,0,0,0,291.007,72.426Z" fill="#fff"/>
              </g>
            </g>
          </g>
        </g>
      </g>
      <g id="Grupo_54" data-name="Grupo 54">
        <path id="Trazado_40" data-name="Trazado 40" d="M345.309,34.876l-4.029,7.363-7.363,4.03,7.363,4.025,4.029,7.363,4.029-7.363,7.364-4.025-7.364-4.03Z" fill="#e8505b"/>
      </g>
      <g id="Grupo_55" data-name="Grupo 55" transform="translate(-4 -23)">
        <path id="Trazado_41" data-name="Trazado 41" d="M120.656,150.1l-4.455,8.141-8.141,4.456,8.141,4.45,4.455,8.141,4.455-8.141,8.142-4.45-8.142-4.456Z" fill="#e8505b"/>
      </g>
      <g id="Grupo_56" data-name="Grupo 56">
        <path id="Trazado_42" data-name="Trazado 42" d="M358.128,82.668,355.65,87.2l-4.519,2.474,4.519,2.475,2.478,4.524,2.479-4.524,4.519-2.475L360.607,87.2Z" fill="#e8505b"/>
      </g>
      <g id="Grupo_57" data-name="Grupo 57">
        <path id="Trazado_43" data-name="Trazado 43" d="M383.358,22.28l-1.645,3.006-3,1.642,3,1.643,1.645,3,1.646-3,3-1.643-3-1.642Z" fill="#e8505b"/>
      </g>
      <g id="Grupo_58" data-name="Grupo 58">
        <path id="Trazado_44" data-name="Trazado 44" d="M96.227,103.279l-2.74,5.007-5,2.735,5,2.736,2.74,5,2.74-5,5-2.736-5-2.735Z" fill="#e8505b"/>
      </g>
      <rect id="Rectángulo_37" data-name="Rectángulo 37" width="143.958" height="27.582" rx="4.096" transform="translate(158.52 354.58)" fill="#e8505b"/>
      <rect id="Rectángulo_38" data-name="Rectángulo 38" width="94.579" height="9.93" rx="1" transform="translate(158.824 296.354)" fill="#e0e0e0"/>
      <rect id="Rectángulo_39" data-name="Rectángulo 39" width="140.917" height="147.84" rx="4.096" transform="translate(158.824 139.688)" fill="#f0f0f0"/>
      <rect id="Rectángulo_40" data-name="Rectángulo 40" width="48.667" height="9.93" rx="1" transform="translate(158.824 311.8)" fill="#e0e0e0"/>
      <rect id="Rectángulo_41" data-name="Rectángulo 41" width="38.311" height="14.343" rx="4.717" transform="translate(209.575 105.486)" fill="#e0e0e0"/>
      <path id="Trazado_45" data-name="Trazado 45" d="M166.209,107.726l-3.9,3.9a.827.827,0,0,0,0,1.17l3.9,3.9a.828.828,0,1,0,1.17-1.171l-3.315-3.315,3.315-3.316a.827.827,0,0,0-1.17-1.17Z" fill="#e0e0e0"/>
    </g>
    <g id="Character">
      <ellipse id="Elipse_4" data-name="Elipse 4" cx="34.202" cy="4.707" rx="34.202" ry="4.707" transform="translate(370.351 472.087)" fill="#eaebec"/>
      <g id="Grupo_307" data-name="Grupo 307">
        <g id="Grupo_93" data-name="Grupo 93">
          <g id="Grupo_62" data-name="Grupo 62">
            <g id="Grupo_61" data-name="Grupo 61">
              <g id="Grupo_60" data-name="Grupo 60">
                <g id="Grupo_59" data-name="Grupo 59">
                  <path id="Trazado_46" data-name="Trazado 46" d="M426.271,426.03l-8.118-6.383,11.86-15.283,11.975,9.213-.674.994c-3.039,4.4-15.76,22.154-18.8,24.31C419.118,441.285,426.271,426.03,426.271,426.03Z" fill="#e8505b"/>
                </g>
              </g>
            </g>
          </g>
          <g id="Grupo_67" data-name="Grupo 67">
            <g id="Grupo_66" data-name="Grupo 66">
              <g id="Grupo_65" data-name="Grupo 65">
                <g id="Grupo_64" data-name="Grupo 64">
                  <g id="Grupo_63" data-name="Grupo 63">
                    <path id="Trazado_47" data-name="Trazado 47" d="M421.486,438.657c-.144-.113,4.212-5.894,9.729-12.909s10.106-12.613,10.25-12.5-4.212,5.891-9.73,12.909S421.629,438.769,421.486,438.657Z" fill="#263238"/>
                  </g>
                </g>
              </g>
            </g>
          </g>
          <g id="Grupo_72" data-name="Grupo 72">
            <g id="Grupo_71" data-name="Grupo 71">
              <g id="Grupo_70" data-name="Grupo 70">
                <g id="Grupo_69" data-name="Grupo 69">
                  <g id="Grupo_68" data-name="Grupo 68">
                    <path id="Trazado_48" data-name="Trazado 48" d="M427.717,427.6c-.029.183-.555.249-1.181.244s-1.151-.084-1.177-.266.5-.4,1.184-.395S427.747,427.422,427.717,427.6Z" fill="#263238"/>
                  </g>
                </g>
              </g>
            </g>
          </g>
          <g id="Grupo_77" data-name="Grupo 77">
            <g id="Grupo_76" data-name="Grupo 76">
              <g id="Grupo_75" data-name="Grupo 75">
                <g id="Grupo_74" data-name="Grupo 74">
                  <g id="Grupo_73" data-name="Grupo 73">
                    <path id="Trazado_49" data-name="Trazado 49" d="M427.489,428.992c-.052.177-.635.16-1.322.069s-1.254-.232-1.257-.417.6-.339,1.345-.239S427.542,428.819,427.489,428.992Z" fill="#263238"/>
                  </g>
                </g>
              </g>
            </g>
          </g>
          <g id="Grupo_82" data-name="Grupo 82">
            <g id="Grupo_81" data-name="Grupo 81">
              <g id="Grupo_80" data-name="Grupo 80">
                <g id="Grupo_79" data-name="Grupo 79">
                  <g id="Grupo_78" data-name="Grupo 78">
                    <path id="Trazado_50" data-name="Trazado 50" d="M437.808,417.786c-.087.025-.279-.322-.5-.921a6.788,6.788,0,0,1-.429-2.494,3.9,3.9,0,0,1,.9-2.423c.457-.51.881-.63.917-.559.056.085-.243.335-.543.838a4.624,4.624,0,0,0-.611,2.17,12.32,12.32,0,0,0,.221,2.352C437.863,417.364,437.9,417.762,437.808,417.786Z" fill="#263238"/>
                  </g>
                </g>
              </g>
            </g>
          </g>
          <g id="Grupo_87" data-name="Grupo 87">
            <g id="Grupo_86" data-name="Grupo 86">
              <g id="Grupo_85" data-name="Grupo 85">
                <g id="Grupo_84" data-name="Grupo 84">
                  <g id="Grupo_83" data-name="Grupo 83">
                    <path id="Trazado_51" data-name="Trazado 51" d="M426.155,426.447c-.067-.172.266-.464.7-.741s.842-.454.968-.319-.12.565-.613.877S426.221,426.615,426.155,426.447Z" fill="#263238"/>
                  </g>
                </g>
              </g>
            </g>
          </g>
          <g id="Grupo_92" data-name="Grupo 92">
            <g id="Grupo_91" data-name="Grupo 91">
              <g id="Grupo_90" data-name="Grupo 90">
                <g id="Grupo_89" data-name="Grupo 89">
                  <g id="Grupo_88" data-name="Grupo 88">
                    <path id="Trazado_52" data-name="Trazado 52" d="M425.558,425.591c-.133-.126.076-.621.469-1.106s.833-.795.984-.692-.059.6-.469,1.108S425.691,425.718,425.558,425.591Z" fill="#263238"/>
                  </g>
                </g>
              </g>
            </g>
          </g>
        </g>
        <g id="Grupo_102" data-name="Grupo 102">
          <g id="Grupo_95" data-name="Grupo 95">
            <g id="Grupo_94" data-name="Grupo 94">
              <path id="Trazado_53" data-name="Trazado 53" d="M372.478,294.706s-24.226,64.368-20.962,76.394,68.6,59.775,68.6,59.775l17.738-25.528s-50.959-40.33-51.119-42.557,20.23-55.7,20.23-55.7Z" fill="#263238"/>
            </g>
          </g>
          <g id="Grupo_98" data-name="Grupo 98">
            <g id="Grupo_97" data-name="Grupo 97">
              <g id="Grupo_96" data-name="Grupo 96">
                <path id="Trazado_54" data-name="Trazado 54" d="M419,411.243a.9.9,0,0,1-.23-.126l-.64-.421-2.427-1.663c-2.092-1.467-5.11-3.6-8.781-6.325-7.352-5.427-17.333-13.174-27.927-22.244-2.653-2.263-5.216-4.5-7.677-6.684l-3.609-3.227a13.612,13.612,0,0,1-3.115-3.532,6.491,6.491,0,0,1-.457-4.472c.283-1.422.643-2.759.983-4.063.7-2.6,1.392-5,2.028-7.2l3.018-10.387q.5-1.786.791-2.832c.082-.294.15-.536.207-.736a.132.132,0,1,1,.058.013c-.041.2-.09.451-.15.752-.142.657-.371,1.623-.684,2.862-.629,2.478-1.612,6.042-2.838,10.442-.61,2.2-1.282,4.609-1.956,7.2-.328,1.3-.679,2.647-.946,4.034a5.967,5.967,0,0,0,.427,4.122,13.216,13.216,0,0,0,3.011,3.368q1.773,1.574,3.615,3.212c2.464,2.172,5.028,4.408,7.678,6.669,10.583,9.06,20.511,16.85,27.793,22.358l8.665,6.473L418.2,410.6l.606.468C418.936,411.175,419,411.235,419,411.243Z" fill="#455a64"/>
              </g>
            </g>
          </g>
          <g id="Grupo_101" data-name="Grupo 101">
            <g id="Grupo_100" data-name="Grupo 100">
              <g id="Grupo_99" data-name="Grupo 99">
                <path id="Trazado_55" data-name="Trazado 55" d="M413.081,419.02c-.13-.1,3.236-4.743,7.518-10.372s7.86-10.114,7.99-10.015-3.236,4.742-7.519,10.373S413.211,419.119,413.081,419.02Z" fill="#455a64"/>
              </g>
            </g>
          </g>
        </g>
        <g id="Grupo_104" data-name="Grupo 104">
          <g id="Grupo_103" data-name="Grupo 103">
            <path id="Trazado_56" data-name="Trazado 56" d="M415.261,172.3c2.161,4.33,3.3,8.078,7.6,10.31,1.934,1.005,4.293,1.579,5.459,3.421,1.27,2,.672,4.91,2.276,6.659,2.333,2.543,7.1.482,9.722,2.729,2.338,2.006,1.586,6.308,4.108,8.077,1.419.994,3.352.773,4.967,1.4,2.648,1.026,3.9,4.08,4.25,6.9a12.048,12.048,0,0,1-.833,6.674,6.822,6.822,0,0,1-5.185,3.963c-3,.316-6.406-1.757-8.838.034a11.983,11.983,0,0,0-2.025,2.476,7.581,7.581,0,0,1-12.457-.787c-1.677-2.795-1.568-6.65-4.025-8.792-1.285-1.12-3.022-1.521-4.618-2.118s-3.247-1.587-3.727-3.222a14.213,14.213,0,0,0-2.31-3.978c-1.229-1.837-2.866.408-4.491-.5s-1.007-2.675-1.144-4.53" fill="#263238"/>
          </g>
        </g>
        <g id="Grupo_129" data-name="Grupo 129">
          <g id="Grupo_108" data-name="Grupo 108">
            <g id="Grupo_107" data-name="Grupo 107">
              <g id="Grupo_106" data-name="Grupo 106">
                <g id="Grupo_105" data-name="Grupo 105">
                  <path id="Trazado_57" data-name="Trazado 57" d="M407.431,212.76h0l9.147.165,7.265,20.817-5.916,23.852c-1.729,6.969,6.117,20.909,5.916,28.6l-51.3,8.309-1.08-34.259-.026-1.148-17.754-8.859,5.858-14.352c9.014-21.116,24.755-22.4,24.755-22.4Z" fill="#e8505b"/>
                </g>
              </g>
            </g>
          </g>
          <g id="Grupo_112" data-name="Grupo 112" opacity="0.2">
            <g id="Grupo_111" data-name="Grupo 111">
              <g id="Grupo_110" data-name="Grupo 110">
                <g id="Grupo_109" data-name="Grupo 109">
                  <path id="Trazado_58" data-name="Trazado 58" d="M407.431,212.76h0l9.147.165,7.265,20.817-5.916,23.852c-1.729,6.969,6.117,20.909,5.916,28.6l-51.3,8.309-1.08-34.259-.026-1.148-17.754-8.859,5.858-14.352c9.014-21.116,24.755-22.4,24.755-22.4Z" fill="#fff"/>
                </g>
              </g>
            </g>
          </g>
          <g id="Grupo_115" data-name="Grupo 115">
            <g id="Grupo_114" data-name="Grupo 114">
              <g id="Grupo_113" data-name="Grupo 113">
                <path id="Trazado_59" data-name="Trazado 59" d="M416.956,212.985a1.105,1.105,0,0,1-.3.12,9.2,9.2,0,0,1-.9.247,21.143,21.143,0,0,1-3.549.354l.106-.209c.953,1.543,2.134,3.454,3.507,5.678l.236.381-.446-.077a22.206,22.206,0,0,0-6.143-.2l.215-.265a32.083,32.083,0,0,0,.987,6.907l.155.466-.475-.121a24.814,24.814,0,0,1-6.685-2.446l.434-.185c-.413,2.053-.847,4.2-1.29,6.4l-.1.472-.377-.3a30.542,30.542,0,0,1-4.945-4.974l.414.048-5.869,4.629-.364.287-.093-.453-1.208-5.928.355.2-6.271,2.2-.437.153.119-.444c.669-2.5,1.278-4.771,1.82-6.8l.162.248-5.45-.938-.227-.039.128-.187,2.385-3.486.635-.892a1.333,1.333,0,0,1,.238-.289,1.373,1.373,0,0,1-.172.332l-.572.934q-.825,1.3-2.269,3.563l-.1-.226,5.467.832.217.033-.055.216c-.518,2.034-1.1,4.314-1.736,6.82l-.317-.291,6.253-2.248.291-.1.064.3c.4,1.9.811,3.877,1.238,5.922l-.456-.167,5.858-4.643.231-.183.183.232a30.107,30.107,0,0,0,4.849,4.878l-.472.172c.448-2.2.887-4.349,1.3-6.4l.081-.4.353.211a24.638,24.638,0,0,0,6.507,2.407l-.321.346a31.854,31.854,0,0,1-.953-7.023l-.024-.242.239-.023a22.227,22.227,0,0,1,6.265.279l-.21.3c-1.328-2.249-2.471-4.183-3.393-5.743l-.119-.2.226-.007a25.062,25.062,0,0,0,3.542-.221C416.531,213.074,416.948,212.955,416.956,212.985Z" fill="#455a64"/>
              </g>
            </g>
          </g>
          <g id="Grupo_118" data-name="Grupo 118">
            <g id="Grupo_117" data-name="Grupo 117">
              <g id="Grupo_116" data-name="Grupo 116">
                <path id="Trazado_60" data-name="Trazado 60" d="M427.083,221.732c-.012.025-.356-.171-1.075-.378a6.355,6.355,0,0,0-3.238-.052l.082-.124c.216,1.215.545,2.672,1,4.34s1.009,3.551,1.5,5.672l.073.315-.313-.09c-2.617-.757-5.7-1.336-8.934-2.432l.306-.242c.334,3.149.316,6.671.505,10.37l.017.322-.324-.048a53.85,53.85,0,0,1-8.665-2.284c-.348-.1-.766-.241-.86-.089a2.388,2.388,0,0,0-.487.9q-.453,1.1-.912,2.212l-1.869,4.526-.188.455-.309-.384-5.867-7.283-.436-.542.4.058-9.437,6.486-.313.215-.125-.359q-1.6-4.589-3.089-8.885l.413.141a53.874,53.874,0,0,1-10.5,5.285l-.394.146.059-.414c.674-4.781,1.278-9.066,1.8-12.779l.27.21a19.786,19.786,0,0,1-8.438,1.363l-.19-.011.065-.176c.856-2.291,1.519-4.068,1.985-5.317.222-.572.4-1.021.529-1.362a2.44,2.44,0,0,1,.2-.453,2.475,2.475,0,0,1-.133.478c-.115.347-.267.805-.461,1.387-.437,1.259-1.059,3.051-1.86,5.362l-.124-.187a19.785,19.785,0,0,0,8.276-1.45l.315-.129-.045.339c-.494,3.717-1.063,8.007-1.7,12.793l-.336-.268a53.926,53.926,0,0,0,10.371-5.282l.3-.194.117.335q1.5,4.282,3.114,8.877l-.438-.143,9.43-6.495.226-.155.172.213.436.542,5.862,7.288-.5.071q.953-2.294,1.877-4.523.462-1.113.918-2.209a2.689,2.689,0,0,1,.667-1.13.85.85,0,0,1,.4-.178,1.378,1.378,0,0,1,.375.02,4.89,4.89,0,0,1,.6.16,53.991,53.991,0,0,0,8.578,2.3l-.306.274c-.173-3.728-.133-7.225-.441-10.354l-.036-.36.342.118c3.2,1.109,6.254,1.713,8.893,2.507l-.24.225c-.465-2.11-1.005-4-1.424-5.68s-.731-3.153-.918-4.38l-.016-.1.1-.021a6.243,6.243,0,0,1,3.322.156A4.116,4.116,0,0,1,427.083,221.732Z" fill="#455a64"/>
              </g>
            </g>
          </g>
          <g id="Grupo_123" data-name="Grupo 123">
            <g id="Grupo_122" data-name="Grupo 122">
              <g id="Grupo_121" data-name="Grupo 121">
                <g id="Grupo_120" data-name="Grupo 120">
                  <g id="Grupo_119" data-name="Grupo 119">
                    <path id="Trazado_61" data-name="Trazado 61" d="M371.74,258.841a3.093,3.093,0,0,1-1.1-.581,8.881,8.881,0,0,1-2.372-2.445,7.809,7.809,0,0,1-1.208-4.9,10.843,10.843,0,0,1,1.993-5.852,10.73,10.73,0,0,1,3.638-3.252l-.156.214c.424-3.146.809-5.849,1.105-7.764a19.46,19.46,0,0,1,.566-3.03,19.549,19.549,0,0,1-.218,3.079c-.2,1.928-.51,4.641-.9,7.794l-.016.136-.139.078a10.608,10.608,0,0,0-5.334,8.63,7.564,7.564,0,0,0,1.02,4.646,9.7,9.7,0,0,0,2.156,2.481C371.385,258.574,371.76,258.8,371.74,258.841Z" fill="#455a64"/>
                  </g>
                </g>
              </g>
            </g>
          </g>
          <g id="Grupo_128" data-name="Grupo 128">
            <g id="Grupo_127" data-name="Grupo 127">
              <g id="Grupo_126" data-name="Grupo 126">
                <g id="Grupo_125" data-name="Grupo 125">
                  <g id="Grupo_124" data-name="Grupo 124">
                    <path id="Trazado_62" data-name="Trazado 62" d="M373.675,235.731c-.146.071-.651-.66-1.129-1.635s-.745-1.822-.6-1.894.652.661,1.129,1.635S373.822,235.659,373.675,235.731Z" fill="#455a64"/>
                  </g>
                </g>
              </g>
            </g>
          </g>
        </g>
        <g id="Grupo_133" data-name="Grupo 133">
          <g id="Grupo_132" data-name="Grupo 132">
            <g id="Grupo_131" data-name="Grupo 131">
              <g id="Grupo_130" data-name="Grupo 130">
                <path id="Trazado_63" data-name="Trazado 63" d="M406.814,213.061l1.578-36.053-14.317-10.846-13.014,6.362s-.435,16.341,0,23.427,7.578,7.842,7.578,7.842-.166,4.153-.33,8.516a9.261,9.261,0,0,0,9.341,9.607h0A9.26,9.26,0,0,0,406.814,213.061Z" fill="#e5baab"/>
              </g>
            </g>
          </g>
        </g>
        <g id="Grupo_143" data-name="Grupo 143">
          <g id="Grupo_137" data-name="Grupo 137">
            <g id="Grupo_136" data-name="Grupo 136">
              <g id="Grupo_135" data-name="Grupo 135">
                <g id="Grupo_134" data-name="Grupo 134">
                  <path id="Trazado_64" data-name="Trazado 64" d="M382.477,184.435a.908.908,0,1,0,.908-.907A.908.908,0,0,0,382.477,184.435Z" fill="#263238"/>
                </g>
              </g>
            </g>
          </g>
          <g id="Grupo_142" data-name="Grupo 142">
            <g id="Grupo_141" data-name="Grupo 141">
              <g id="Grupo_140" data-name="Grupo 140">
                <g id="Grupo_139" data-name="Grupo 139">
                  <g id="Grupo_138" data-name="Grupo 138">
                    <path id="Trazado_65" data-name="Trazado 65" d="M381.6,183.446c.117.118.787-.452,1.763-.5s1.709.418,1.811.287c.05-.059-.071-.275-.392-.5a2.408,2.408,0,0,0-2.853.174C381.637,183.166,381.543,183.4,381.6,183.446Z" fill="#263238"/>
                  </g>
                </g>
              </g>
            </g>
          </g>
        </g>
        <g id="Grupo_153" data-name="Grupo 153">
          <g id="Grupo_147" data-name="Grupo 147">
            <g id="Grupo_146" data-name="Grupo 146">
              <g id="Grupo_145" data-name="Grupo 145">
                <g id="Grupo_144" data-name="Grupo 144">
                  <path id="Trazado_66" data-name="Trazado 66" d="M392.988,184.435a.906.906,0,1,0,.906-.907A.907.907,0,0,0,392.988,184.435Z" fill="#263238"/>
                </g>
              </g>
            </g>
          </g>
          <g id="Grupo_152" data-name="Grupo 152">
            <g id="Grupo_151" data-name="Grupo 151">
              <g id="Grupo_150" data-name="Grupo 150">
                <g id="Grupo_149" data-name="Grupo 149">
                  <g id="Grupo_148" data-name="Grupo 148">
                    <path id="Trazado_67" data-name="Trazado 67" d="M392.424,183.446c.117.118.787-.452,1.763-.5s1.709.418,1.811.287c.05-.059-.071-.275-.392-.5a2.408,2.408,0,0,0-2.853.174C392.461,183.166,392.367,183.4,392.424,183.446Z" fill="#263238"/>
                  </g>
                </g>
              </g>
            </g>
          </g>
        </g>
        <g id="Grupo_157" data-name="Grupo 157">
          <g id="Grupo_156" data-name="Grupo 156">
            <g id="Grupo_155" data-name="Grupo 155">
              <g id="Grupo_154" data-name="Grupo 154">
                <path id="Trazado_68" data-name="Trazado 68" d="M392.127,192.618a17.931,17.931,0,0,1-4.721,1.625,2.747,2.747,0,0,0,3.236.919A2.018,2.018,0,0,0,392.127,192.618Z" fill="#fff"/>
              </g>
            </g>
          </g>
        </g>
        <g id="Grupo_161" data-name="Grupo 161">
          <g id="Grupo_160" data-name="Grupo 160">
            <g id="Grupo_159" data-name="Grupo 159">
              <g id="Grupo_158" data-name="Grupo 158">
                <path id="Trazado_69" data-name="Trazado 69" d="M388.635,203.793a17.69,17.69,0,0,0,9.388-3.171s-2.128,5.2-9.233,4.91Z" fill="#d78776"/>
              </g>
            </g>
          </g>
        </g>
        <g id="Grupo_165" data-name="Grupo 165">
          <g id="Grupo_164" data-name="Grupo 164">
            <g id="Grupo_163" data-name="Grupo 163">
              <g id="Grupo_162" data-name="Grupo 162">
                <path id="Trazado_70" data-name="Trazado 70" d="M429.007,197.378a5.1,5.1,0,0,1-2.569-.581,7.141,7.141,0,0,1-2.8-2.715,29.25,29.25,0,0,1-2.094-4.489c-1.324-3.294-2.322-6.351-3-8.578-.106-.353-.2-.676-.295-.984-.059-.379-.12-.717-.186-.966-3.866-14.777-16.854-17.532-19.423-17.532-2.756,0-7.576-1.515-14.6,5.786a15.9,15.9,0,0,0-2.665,3.68,15.84,15.84,0,0,0-3.132,6.673,8.019,8.019,0,0,0-.164,3.517c.133.005.155-1.339.706-3.389a17.172,17.172,0,0,1,1.359-3.489,13.464,13.464,0,0,0,.721,8.162l2.52-.694,9.024-3.071c-.82-2.795.387-6.265,1.07-7.883l.067-.062a14.1,14.1,0,0,0,11.93,11.585l1.668,23.207c12-2.564,11.724-18.616,11.647-21.877.543,1.838,1.251,3.949,2.141,6.161a26.6,26.6,0,0,0,2.194,4.573,7.323,7.323,0,0,0,3.113,2.807,4.883,4.883,0,0,0,2.8.414,1.836,1.836,0,0,0,.966-.371C429.983,197.208,429.639,197.335,429.007,197.378Z" fill="#263238"/>
              </g>
            </g>
          </g>
        </g>
        <g id="Grupo_170" data-name="Grupo 170">
          <g id="Grupo_169" data-name="Grupo 169">
            <g id="Grupo_168" data-name="Grupo 168">
              <g id="Grupo_167" data-name="Grupo 167">
                <g id="Grupo_166" data-name="Grupo 166">
                  <path id="Trazado_71" data-name="Trazado 71" d="M388.9,191.694a6.662,6.662,0,0,0-1.6-.2c-.249-.012-.494-.049-.546-.232a1.394,1.394,0,0,1,.139-.789q.318-.962.669-2.024c.465-1.439.864-2.749,1.134-3.7a6.515,6.515,0,0,0,.36-1.569,6.515,6.515,0,0,0-.625,1.484c-.338.932-.779,2.228-1.243,3.668l-.641,2.033a1.575,1.575,0,0,0-.1,1.02.609.609,0,0,0,.415.352,1.652,1.652,0,0,0,.424.038A6.6,6.6,0,0,0,388.9,191.694Z" fill="#263238"/>
                </g>
              </g>
            </g>
          </g>
        </g>
        <g id="Grupo_180" data-name="Grupo 180">
          <g id="Grupo_174" data-name="Grupo 174">
            <g id="Grupo_173" data-name="Grupo 173">
              <g id="Grupo_172" data-name="Grupo 172">
                <g id="Grupo_171" data-name="Grupo 171">
                  <path id="Trazado_72" data-name="Trazado 72" d="M409.145,191.4a8.781,8.781,0,0,1,.38-3.5,3.3,3.3,0,0,1,2.548-2.2,2.794,2.794,0,0,1,2.878,2.326,3.44,3.44,0,0,1-1.753,3.407,4.514,4.514,0,0,1-3.936.111" fill="#e5baab"/>
                </g>
              </g>
            </g>
          </g>
          <g id="Grupo_179" data-name="Grupo 179">
            <g id="Grupo_178" data-name="Grupo 178">
              <g id="Grupo_177" data-name="Grupo 177">
                <g id="Grupo_176" data-name="Grupo 176">
                  <g id="Grupo_175" data-name="Grupo 175">
                    <path id="Trazado_73" data-name="Trazado 73" d="M411.211,190.367c.043-.079.383.1.883-.057a1.59,1.59,0,0,0,1.062-1.506,1.2,1.2,0,0,0-.253-.944,1.064,1.064,0,0,0-.772-.231c-.531.047-.9.188-.936.1-.022-.059.24-.331.874-.511a1.4,1.4,0,0,1,1.189.23,1.628,1.628,0,0,1,.488,1.4,2.214,2.214,0,0,1-.529,1.324,1.642,1.642,0,0,1-1.043.553C411.474,190.789,411.153,190.41,411.211,190.367Z" fill="#d78776"/>
                  </g>
                </g>
              </g>
            </g>
          </g>
        </g>
        <g id="Grupo_215" data-name="Grupo 215">
          <g id="Grupo_184" data-name="Grupo 184">
            <g id="Grupo_183" data-name="Grupo 183">
              <g id="Grupo_182" data-name="Grupo 182">
                <g id="Grupo_181" data-name="Grupo 181">
                  <path id="Trazado_74" data-name="Trazado 74" d="M400.354,472.129V461.8l19.345-.124.159,15.108-1.2.085c-5.337.331-27.156,1.3-30.732.245C383.941,475.936,400.354,472.129,400.354,472.129Z" fill="#e8505b"/>
                </g>
              </g>
            </g>
          </g>
          <g id="Grupo_189" data-name="Grupo 189">
            <g id="Grupo_188" data-name="Grupo 188">
              <g id="Grupo_187" data-name="Grupo 187">
                <g id="Grupo_186" data-name="Grupo 186">
                  <g id="Grupo_185" data-name="Grupo 185">
                    <path id="Trazado_75" data-name="Trazado 75" d="M387.47,476.172c0-.183,7.238-.332,16.162-.332s16.161.149,16.161.332-7.234.33-16.161.33S387.47,476.354,387.47,476.172Z" fill="#263238"/>
                  </g>
                </g>
              </g>
            </g>
          </g>
          <g id="Grupo_194" data-name="Grupo 194">
            <g id="Grupo_193" data-name="Grupo 193">
              <g id="Grupo_192" data-name="Grupo 192">
                <g id="Grupo_191" data-name="Grupo 191">
                  <g id="Grupo_190" data-name="Grupo 190">
                    <path id="Trazado_76" data-name="Trazado 76" d="M400.014,474.236c-.162.09-.539-.282-.923-.778s-.645-.956-.517-1.089.626.145,1.042.686S400.172,474.15,400.014,474.236Z" fill="#263238"/>
                  </g>
                </g>
              </g>
            </g>
          </g>
          <g id="Grupo_199" data-name="Grupo 199">
            <g id="Grupo_198" data-name="Grupo 198">
              <g id="Grupo_197" data-name="Grupo 197">
                <g id="Grupo_196" data-name="Grupo 196">
                  <g id="Grupo_195" data-name="Grupo 195">
                    <path id="Trazado_77" data-name="Trazado 77" d="M398.779,474.917c-.172.069-.519-.4-.873-1s-.591-1.13-.448-1.246.639.264,1.019.91S398.947,474.852,398.779,474.917Z" fill="#263238"/>
                  </g>
                </g>
              </g>
            </g>
          </g>
          <g id="Grupo_204" data-name="Grupo 204">
            <g id="Grupo_203" data-name="Grupo 203">
              <g id="Grupo_202" data-name="Grupo 202">
                <g id="Grupo_201" data-name="Grupo 201">
                  <g id="Grupo_200" data-name="Grupo 200">
                    <path id="Trazado_78" data-name="Trazado 78" d="M413.966,476.1c-.074-.053.081-.418.417-.96a6.8,6.8,0,0,1,1.694-1.879,3.91,3.91,0,0,1,2.46-.792c.684.044,1.04.3,1.006.375-.032.1-.413.016-.994.091a4.628,4.628,0,0,0-2.084.862,12.252,12.252,0,0,0-1.711,1.627C414.332,475.885,414.04,476.157,413.966,476.1Z" fill="#263238"/>
                  </g>
                </g>
              </g>
            </g>
          </g>
          <g id="Grupo_209" data-name="Grupo 209">
            <g id="Grupo_208" data-name="Grupo 208">
              <g id="Grupo_207" data-name="Grupo 207">
                <g id="Grupo_206" data-name="Grupo 206">
                  <g id="Grupo_205" data-name="Grupo 205">
                    <path id="Trazado_79" data-name="Trazado 79" d="M399.955,472.3c.093-.16.529-.078,1.014.09s.877.382.849.565-.517.255-1.068.059S399.863,472.451,399.955,472.3Z" fill="#263238"/>
                  </g>
                </g>
              </g>
            </g>
          </g>
          <g id="Grupo_214" data-name="Grupo 214">
            <g id="Grupo_213" data-name="Grupo 213">
              <g id="Grupo_212" data-name="Grupo 212">
                <g id="Grupo_211" data-name="Grupo 211">
                  <g id="Grupo_210" data-name="Grupo 210">
                    <path id="Trazado_80" data-name="Trazado 80" d="M400.259,471.3c.016-.182.535-.324,1.159-.315s1.14.163,1.152.346-.508.324-1.161.316S400.241,471.48,400.259,471.3Z" fill="#263238"/>
                  </g>
                </g>
              </g>
            </g>
          </g>
        </g>
        <g id="Grupo_220" data-name="Grupo 220">
          <g id="Grupo_219" data-name="Grupo 219">
            <g id="Grupo_218" data-name="Grupo 218">
              <g id="Grupo_217" data-name="Grupo 217">
                <g id="Grupo_216" data-name="Grupo 216">
                  <path id="Trazado_81" data-name="Trazado 81" d="M383.077,292.937l-10.6,1.769,6.1,7.506c1.753,35.338,1.329,69.565,2.947,86.634.245,2.59,11.188,83.891,10.1,81.987l32.219,1.344L414.23,390.53l4.559-72.515a38.392,38.392,0,0,0,4.033-28.32l-.8-3.261" fill="#455a64"/>
                </g>
              </g>
            </g>
          </g>
        </g>
        <g id="Grupo_244" data-name="Grupo 244">
          <g id="Grupo_225" data-name="Grupo 225">
            <g id="Grupo_222" data-name="Grupo 222">
              <g id="Grupo_221" data-name="Grupo 221">
                <path id="Trazado_82" data-name="Trazado 82" d="M431.085,360.591l-144.152-42.01a8.559,8.559,0,0,1-5.823-10.613l25.642-87.99a8.561,8.561,0,0,1,10.614-5.824l144.153,42.011a8.56,8.56,0,0,1,5.823,10.612L441.7,354.767A8.561,8.561,0,0,1,431.085,360.591Z" fill="#e8505b"/>
              </g>
            </g>
            <g id="Grupo_224" data-name="Grupo 224">
              <g id="Grupo_223" data-name="Grupo 223">
                <path id="Trazado_83" data-name="Trazado 83" d="M431.085,360.591l-144.152-42.01a8.559,8.559,0,0,1-5.823-10.613l25.642-87.99a8.561,8.561,0,0,1,10.614-5.824l144.153,42.011a8.56,8.56,0,0,1,5.823,10.612L441.7,354.767A8.561,8.561,0,0,1,431.085,360.591Z" fill="#e8505b"/>
              </g>
            </g>
          </g>
          <g id="Grupo_241" data-name="Grupo 241">
            <g id="Grupo_226" data-name="Grupo 226">
              <path id="Trazado_84" data-name="Trazado 84" d="M300.607,295.913l-2.6,8.914-.917-.266,2.361-8.1-2.1-.612.237-.816Z" fill="#fff"/>
            </g>
            <g id="Grupo_227" data-name="Grupo 227">
              <path id="Trazado_85" data-name="Trazado 85" d="M307.415,306.685l-.237.815-6.253-1.823.188-.648,4.765-2.549c1.3-.7,1.661-1.245,1.838-1.856.3-1.032-.238-1.88-1.6-2.278a3.149,3.149,0,0,0-2.723.285l-.486-.749a4.176,4.176,0,0,1,3.53-.354c1.808.527,2.687,1.779,2.252,3.269-.248.853-.738,1.539-2.276,2.362l-3.9,2.1Z" fill="#fff"/>
            </g>
            <g id="Grupo_228" data-name="Grupo 228">
              <path id="Trazado_86" data-name="Trazado 86" d="M317.246,307.891l-1.784-.519-.683,2.343-.917-.268.682-2.343-5.03-1.465.193-.663,6.447-4.533,1.02.3-6.239,4.429,3.872,1.128.6-2.064.891.26-.6,2.063,1.784.521Z" fill="#fff"/>
            </g>
            <g id="Grupo_229" data-name="Grupo 229">
              <path id="Trazado_87" data-name="Trazado 87" d="M330.907,311.873l-1.783-.52-.683,2.343-.918-.267.683-2.344-5.03-1.465.193-.663,6.448-4.532,1.018.3L324.6,309.15l3.871,1.129.6-2.064.891.259-.6,2.064,1.783.52Z" fill="#fff"/>
            </g>
            <g id="Grupo_230" data-name="Grupo 230">
              <path id="Trazado_88" data-name="Trazado 88" d="M338.78,313.863c-.442,1.517-1.844,2.393-4.023,1.758a4.8,4.8,0,0,1-2.862-2.077l.657-.6a4.03,4.03,0,0,0,2.438,1.83c1.516.441,2.534-.064,2.849-1.147.334-1.146-.17-2.067-2.438-2.727l-1.9-.554,1.762-4.337,4.878,1.422-.237.816-4.076-1.188-1.135,2.751,1.147.334C338.529,310.93,339.241,312.284,338.78,313.863Z" fill="#fff"/>
            </g>
            <g id="Grupo_231" data-name="Grupo 231">
              <path id="Trazado_89" data-name="Trazado 89" d="M347.6,316.393a2.894,2.894,0,0,1-3.842,1.852c-2.37-.691-3.177-2.709-2.357-5.524.884-3.031,3-4.128,5.419-3.423a4.254,4.254,0,0,1,1.973,1.1l-.584.631a3.27,3.27,0,0,0-1.609-.926c-1.923-.559-3.52.315-4.225,2.736-.059.2-.12.461-.172.736a2.97,2.97,0,0,1,3.171-.733C347.146,313.358,348.077,314.763,347.6,316.393Zm-.912-.24a2.039,2.039,0,0,0-1.681-2.575,2.15,2.15,0,0,0-2.861,1.279c-.286.983.258,2.15,1.8,2.6A2.033,2.033,0,0,0,346.69,316.153Z" fill="#fff"/>
            </g>
            <g id="Grupo_232" data-name="Grupo 232">
              <path id="Trazado_90" data-name="Trazado 90" d="M359.77,320.05c-.435,1.49-1.851,2.322-4,1.694a4.832,4.832,0,0,1-2.875-2.081l.657-.6a4.066,4.066,0,0,0,2.463,1.837c1.477.431,2.493-.019,2.816-1.127.311-1.07-.235-1.99-1.891-2.472l-.637-.185.2-.677,3.372-2.374-4.561-1.328.239-.816,5.732,1.67-.19.649-3.446,2.439C359.523,317.338,360.186,318.623,359.77,320.05Z" fill="#fff"/>
            </g>
            <g id="Grupo_233" data-name="Grupo 233">
              <path id="Trazado_91" data-name="Trazado 91" d="M368.737,322.552a2.9,2.9,0,0,1-3.843,1.853c-2.368-.692-3.177-2.711-2.356-5.525.883-3.032,3-4.128,5.42-3.423a4.255,4.255,0,0,1,1.973,1.1l-.584.63a3.273,3.273,0,0,0-1.61-.925c-1.923-.56-3.519.315-4.224,2.736-.06.2-.121.461-.173.736a2.966,2.966,0,0,1,3.17-.733C368.282,319.517,369.213,320.923,368.737,322.552Zm-.912-.239a2.039,2.039,0,0,0-1.68-2.575,2.149,2.149,0,0,0-2.861,1.279c-.286.982.258,2.149,1.8,2.6A2.031,2.031,0,0,0,367.825,322.313Z" fill="#fff"/>
            </g>
            <g id="Grupo_234" data-name="Grupo 234">
              <path id="Trazado_92" data-name="Trazado 92" d="M378.761,318.688l-.19.65-6.14,7.178-.994-.289,6.029-7.031-4.585-1.336-.486,1.667-.9-.263.723-2.483Z" fill="#fff"/>
            </g>
            <g id="Grupo_235" data-name="Grupo 235">
              <path id="Trazado_93" data-name="Trazado 93" d="M391.505,322.4l-.19.649-6.141,7.177-.992-.289,6.029-7.03-4.585-1.337-.487,1.669-.9-.264.724-2.484Z" fill="#fff"/>
            </g>
            <g id="Grupo_236" data-name="Grupo 236">
              <path id="Trazado_94" data-name="Trazado 94" d="M398.4,331.391c-.46,1.578-2.084,2.17-4.211,1.551s-3.153-1.984-2.693-3.563a2.32,2.32,0,0,1,2.358-1.69,2.093,2.093,0,0,1-.829-2.369c.422-1.452,1.922-2,3.806-1.447s2.882,1.821,2.46,3.273a2.1,2.1,0,0,1-2,1.545A2.341,2.341,0,0,1,398.4,331.391Zm-.939-.288c.319-1.1-.424-2.058-2-2.517s-2.71-.045-3.029,1.05.406,2.069,1.986,2.529S397.142,332.211,397.465,331.1Zm-1.791-3.245c1.388.4,2.4.024,2.681-.945.293-1.005-.409-1.873-1.746-2.264s-2.382-.029-2.671.964S394.285,327.454,395.674,327.858Z" fill="#fff"/>
            </g>
            <g id="Grupo_237" data-name="Grupo 237">
              <path id="Trazado_95" data-name="Trazado 95" d="M407.659,331.863c-.883,3.032-3,4.129-5.419,3.424a4.267,4.267,0,0,1-1.973-1.1l.584-.632a3.246,3.246,0,0,0,1.61.925c1.923.561,3.519-.314,4.224-2.734.06-.2.121-.464.173-.737a2.969,2.969,0,0,1-3.171.733c-1.771-.516-2.7-1.92-2.226-3.551a2.893,2.893,0,0,1,3.842-1.851C407.671,327.03,408.479,329.048,407.659,331.863Zm-.745-2.138c.286-.98-.258-2.148-1.8-2.6a2.028,2.028,0,1,0-1.06,3.878A2.149,2.149,0,0,0,406.914,329.725Z" fill="#fff"/>
            </g>
            <g id="Grupo_238" data-name="Grupo 238">
              <path id="Trazado_96" data-name="Trazado 96" d="M417.974,330.115l-2.6,8.917-.916-.269,2.361-8.1-2.1-.613.237-.816Z" fill="#fff"/>
            </g>
            <g id="Grupo_239" data-name="Grupo 239">
              <path id="Trazado_97" data-name="Trazado 97" d="M424.781,340.888l-.237.815-6.253-1.822.189-.649,4.764-2.55c1.3-.7,1.662-1.244,1.84-1.855.3-1.032-.239-1.881-1.6-2.278a3.15,3.15,0,0,0-2.722.285l-.487-.75a4.178,4.178,0,0,1,3.531-.353c1.808.527,2.686,1.778,2.252,3.268-.248.854-.738,1.54-2.277,2.363l-3.9,2.1Z" fill="#fff"/>
            </g>
            <g id="Grupo_240" data-name="Grupo 240">
              <path id="Trazado_98" data-name="Trazado 98" d="M433.288,341.473c-.435,1.491-1.852,2.323-4,1.7a4.824,4.824,0,0,1-2.875-2.081l.657-.6a4.064,4.064,0,0,0,2.463,1.838c1.476.43,2.493-.019,2.815-1.127.312-1.071-.236-1.99-1.892-2.472l-.636-.186.2-.676,3.373-2.374-4.56-1.329.238-.816,5.731,1.671-.19.649-3.446,2.438C433.04,338.762,433.7,340.047,433.288,341.473Z" fill="#fff"/>
            </g>
          </g>
          <g id="Grupo_243" data-name="Grupo 243" opacity="0.1">
            <g id="Grupo_242" data-name="Grupo 242">
              <path id="Rectángulo_42" data-name="Rectángulo 42" d="M4.964,0H32.836A4.963,4.963,0,0,1,37.8,4.963v18.31a4.964,4.964,0,0,1-4.964,4.964H4.964A4.964,4.964,0,0,1,0,23.274V4.964A4.964,4.964,0,0,1,4.964,0Z" transform="translate(307.5 256.268) rotate(16.248)" fill="#263238"/>
            </g>
          </g>
        </g>
        <g id="Grupo_246" data-name="Grupo 246">
          <g id="Grupo_245" data-name="Grupo 245">
            <path id="Trazado_99" data-name="Trazado 99" d="M405.281,165.327a5.424,5.424,0,0,1-3.309-3.683,4.763,4.763,0,0,1,1.462-4.666,4.253,4.253,0,0,1,4.8-.449,6.094,6.094,0,0,1,2.386,3.35,4.865,4.865,0,0,1,.289,2.744,4.036,4.036,0,0,1-2.971,2.678,11.906,11.906,0,0,1-4.17.112" fill="#263238"/>
          </g>
        </g>
        <g id="Grupo_249" data-name="Grupo 249">
          <g id="Grupo_248" data-name="Grupo 248">
            <g id="Grupo_247" data-name="Grupo 247">
              <path id="Trazado_100" data-name="Trazado 100" d="M433.716,184.99a3.463,3.463,0,0,0,.067-1.444,3.276,3.276,0,0,0-.77-1.475,3.9,3.9,0,0,0-1.9-1.093,8.17,8.17,0,0,0-2.725-.194c-1,.064-2.07.242-3.238.268a6.369,6.369,0,0,1-3.591-.851,5.751,5.751,0,0,1-2.146-3.317,17.632,17.632,0,0,0-3.532-6.338,18.755,18.755,0,0,0-4.57-3.814,26.124,26.124,0,0,0-5.1-2.137c0-.02.138-.009.39.029a9.023,9.023,0,0,1,1.1.223,15.94,15.94,0,0,1,3.823,1.522,18.267,18.267,0,0,1,4.771,3.818,17.686,17.686,0,0,1,3.683,6.507,5.236,5.236,0,0,0,1.9,3.021,5.9,5.9,0,0,0,3.268.793c1.115-.01,2.19-.168,3.218-.214a8.373,8.373,0,0,1,2.87.283,4.172,4.172,0,0,1,2.032,1.278,3.39,3.39,0,0,1,.745,1.652,2.407,2.407,0,0,1-.1,1.136C433.818,184.889,433.728,185,433.716,184.99Z" fill="#263238"/>
            </g>
          </g>
        </g>
        <g id="Grupo_252" data-name="Grupo 252">
          <g id="Grupo_251" data-name="Grupo 251">
            <g id="Grupo_250" data-name="Grupo 250">
              <path id="Trazado_101" data-name="Trazado 101" d="M413.336,191.332c.036-.055.532.366.524,1.319a2.091,2.091,0,0,1-.668,1.478,2.235,2.235,0,0,1-3.529-.579,2.1,2.1,0,0,1-.159-1.615c.3-.9.9-1.145.918-1.081.067.067-.373.414-.512,1.179a1.778,1.778,0,0,0,.227,1.247,1.764,1.764,0,0,0,2.693.443,1.784,1.784,0,0,0,.614-1.109A5.128,5.128,0,0,0,413.336,191.332Z" fill="#e0e0e0"/>
            </g>
          </g>
        </g>
        <g id="Grupo_255" data-name="Grupo 255">
          <g id="Grupo_254" data-name="Grupo 254">
            <g id="Grupo_253" data-name="Grupo 253">
              <path id="Trazado_102" data-name="Trazado 102" d="M410.478,166.717c-.138.119-1.558-1.67-3.986-2.933-2.412-1.3-4.689-1.464-4.668-1.645a9.736,9.736,0,0,1,8.654,4.578Z" fill="#e8505b"/>
            </g>
          </g>
        </g>
        <g id="Grupo_258" data-name="Grupo 258">
          <g id="Grupo_257" data-name="Grupo 257">
            <g id="Grupo_256" data-name="Grupo 256">
              <path id="Trazado_103" data-name="Trazado 103" d="M414.6,189.98c0-.077.312-.1.511.262a.784.784,0,0,1,.01.7.859.859,0,0,1-.749.459.9.9,0,0,1-.945-1c.05-.372.266-.5.322-.457.073.044.033.223.1.444a.5.5,0,0,0,.506.424.358.358,0,0,0,.367-.426C414.7,190.173,414.573,190.061,414.6,189.98Z" fill="#e0e0e0"/>
            </g>
          </g>
        </g>
        <g id="Grupo_261" data-name="Grupo 261">
          <g id="Grupo_260" data-name="Grupo 260">
            <g id="Grupo_259" data-name="Grupo 259">
              <path id="Trazado_104" data-name="Trazado 104" d="M407.045,211.952a3.28,3.28,0,0,1,.123,1.191,9.246,9.246,0,0,1-.643,3.21,9.85,9.85,0,0,1-2.843,3.947,9.8,9.8,0,0,1-11.32.683,9.845,9.845,0,0,1-3.3-3.578,9.231,9.231,0,0,1-1.024-3.108,3.3,3.3,0,0,1-.021-1.2,12.994,12.994,0,0,0,1.41,4.1,9.789,9.789,0,0,0,3.223,3.322,9.463,9.463,0,0,0,10.685-.644,9.8,9.8,0,0,0,2.8-3.685A13.039,13.039,0,0,0,407.045,211.952Z" fill="#455a64"/>
            </g>
          </g>
        </g>
        <g id="Grupo_264" data-name="Grupo 264">
          <g id="Grupo_263" data-name="Grupo 263">
            <g id="Grupo_262" data-name="Grupo 262">
              <path id="Trazado_105" data-name="Trazado 105" d="M404.731,464.791a1.208,1.208,0,0,1-.064-.3c-.035-.232-.077-.521-.131-.88-.107-.82-.256-1.952-.444-3.388-.377-2.945-.88-7.21-1.464-12.484-1.173-10.549-2.618-25.142-3.917-41.284s-2.2-30.786-2.725-41.386c-.266-5.3-.451-9.591-.549-12.557-.043-1.447-.077-2.589-.1-3.416-.005-.362-.008-.654-.011-.889a1.138,1.138,0,0,1,.016-.3,1.163,1.163,0,0,1,.044.3c.018.233.042.525.07.886.052.825.123,1.965.213,3.41.177,3.01.427,7.283.736,12.545.633,10.592,1.6,25.219,2.9,41.362s2.677,30.73,3.744,41.287c.535,5.243.97,9.5,1.276,12.5l.335,3.4c.029.361.053.652.072.886A1.152,1.152,0,0,1,404.731,464.791Z" fill="#263238"/>
            </g>
          </g>
        </g>
        <g id="Grupo_267" data-name="Grupo 267">
          <g id="Grupo_266" data-name="Grupo 266">
            <g id="Grupo_265" data-name="Grupo 265">
              <path id="Trazado_106" data-name="Trazado 106" d="M422.736,464.87a5.031,5.031,0,0,1-1.234.172c-.8.074-1.95.15-3.378.217-2.856.139-6.807.2-11.166.138s-8.3-.2-11.157-.31l-3.378-.159a5.01,5.01,0,0,1-1.238-.137,5.039,5.039,0,0,1,1.242-.093c.8-.022,1.955-.031,3.383-.029,2.856,0,6.8.074,11.156.137s8.293.068,11.146.036l3.38-.03A5.067,5.067,0,0,1,422.736,464.87Z" fill="#263238"/>
            </g>
          </g>
        </g>
        <g id="Grupo_271" data-name="Grupo 271">
          <g id="Grupo_270" data-name="Grupo 270">
            <g id="Grupo_269" data-name="Grupo 269">
              <g id="Grupo_268" data-name="Grupo 268">
                <path id="Trazado_107" data-name="Trazado 107" d="M429.016,249.367,410.092,236.92s-9.254,26.658-12.09,26.917c-15.712,1.433-32.524-3.777-38.419-5.836-.6-.672-1.281-1.479-2.043-2.467a9.408,9.408,0,0,1-1.478-2.823,14.362,14.362,0,0,1-.842-3.882,1.232,1.232,0,0,0-2.118-.971c-.68.879-.853,4.247.7,7.869s-3.938.741-5.958-.274-8.414-3.858-9.217-3.485c-1.179.549-.808,1.912,1.232,2.878,2.065.978,7.954,4.293,7.367,5.334-.578,1.025-10.787-4.278-10.787-4.278s-2-1.486-2.717-.307c-1.3,2.128,9.973,6.967,11.056,7.4.753.3.156,1.456-.636,1.089-.815-.378-10.06-5.527-11.4-3.372-1.028,1.653,9.232,4.066,10.557,6.2s-7.6-2.62-8.512-1c-.341.6-.513,1.1,5,3.091a117.482,117.482,0,0,0,12.3,3.139l-.019.056s56.333,25.219,66.988.888C430.4,247.173,429.016,249.367,429.016,249.367Z" fill="#e5baab"/>
              </g>
            </g>
          </g>
        </g>
        <g id="Grupo_276" data-name="Grupo 276">
          <g id="Grupo_275" data-name="Grupo 275">
            <g id="Grupo_274" data-name="Grupo 274">
              <g id="Grupo_273" data-name="Grupo 273">
                <g id="Grupo_272" data-name="Grupo 272">
                  <path id="Trazado_108" data-name="Trazado 108" d="M416.578,212.925s17.217,2.031,15.4,22.5a99.993,99.993,0,0,1-10.487,36.312l-22.568-11.85A139.853,139.853,0,0,0,410.3,227.96l6.277-15.035Z" fill="#e8505b"/>
                </g>
              </g>
            </g>
          </g>
        </g>
        <g id="Grupo_281" data-name="Grupo 281" opacity="0.2">
          <g id="Grupo_280" data-name="Grupo 280">
            <g id="Grupo_279" data-name="Grupo 279">
              <g id="Grupo_278" data-name="Grupo 278">
                <g id="Grupo_277" data-name="Grupo 277">
                  <path id="Trazado_109" data-name="Trazado 109" d="M416.578,212.925s17.217,2.031,15.4,22.5a99.993,99.993,0,0,1-10.487,36.312l-22.568-11.85A139.853,139.853,0,0,0,410.3,227.96l6.277-15.035Z" fill="#fff"/>
                </g>
              </g>
            </g>
          </g>
        </g>
        <g id="Grupo_284" data-name="Grupo 284">
          <g id="Grupo_283" data-name="Grupo 283">
            <g id="Grupo_282" data-name="Grupo 282">
              <path id="Trazado_110" data-name="Trazado 110" d="M416.956,212.985c.039.137-1.873.647-4.744.846l.209-.4,2.123,3.451,1.345,2.252.323.541-.615-.118a48.073,48.073,0,0,0-6.153-.516,5.039,5.039,0,0,1,1.75-.286,19.431,19.431,0,0,1,4.5.247l-.292.424c-.432-.707-.89-1.458-1.366-2.236-.736-1.24-1.429-2.41-2.065-3.483l-.227-.382.436-.018c1.419-.059,2.613-.149,3.446-.227A6.325,6.325,0,0,1,416.956,212.985Z" fill="#455a64"/>
            </g>
          </g>
        </g>
        <g id="Grupo_287" data-name="Grupo 287">
          <g id="Grupo_286" data-name="Grupo 286">
            <g id="Grupo_285" data-name="Grupo 285">
              <path id="Trazado_111" data-name="Trazado 111" d="M427.083,221.732c-.016.1-1.6-.293-4.346-.36l.18-.211c.653,2.59,1.519,6.034,2.519,10l.116.463-.455-.125-7.016-1.926-1.914-.531.378-.295c.156,3.8.3,7.332.424,10.366l.013.334-.309-.087-6.736-1.886-1.863-.562a2.409,2.409,0,0,1-.643-.246,2.519,2.519,0,0,1,.682.1l1.895.432,6.768,1.68-.3.248-.523-10.358-.02-.4.4.11,1.91.528,6.989,1.954-.339.338-2.324-10.068-.052-.226.233.014a21.489,21.489,0,0,1,3.212.409A4.763,4.763,0,0,1,427.083,221.732Z" fill="#455a64"/>
            </g>
          </g>
        </g>
        <g id="Grupo_290" data-name="Grupo 290">
          <g id="Grupo_289" data-name="Grupo 289">
            <g id="Grupo_288" data-name="Grupo 288">
              <path id="Trazado_112" data-name="Trazado 112" d="M428.477,249.7a2.873,2.873,0,0,1-.8-.821c-.466-.589-.964-1.561-1.7-2.685l.3-.012a66.938,66.938,0,0,1-6.245,9.923l-.227.3-.228-.3-3.358-4.374-2.534-3.323.422.042L410.044,252l-1.827,1.583-.852.736-.409.353-.1.087-.052.044-.051.04a.241.241,0,0,1-.071.032c-.037.092-.364-.138-.283-.241.011-.068.005-.026.009-.044l.008-.024.016-.032c.007-.011,0-.012,0,.028-.018.052.077.184.114.174.06.011.008,0-.012.01l-.188.061-.064-.211c-.661-2.173-1.13-3.953-1.388-5.2a5.427,5.427,0,0,1-.212-1.974c.041,0,.107.694.453,1.916.328,1.223.86,2.981,1.569,5.126l-.252-.15a.47.47,0,0,1,.244.005.28.28,0,0,1,.184.271.389.389,0,0,1-.044.151c-.023-.013.043.049-.055-.025a1.258,1.258,0,0,0-.155-.06.285.285,0,0,0-.064-.111c-.02-.027-.021-.008-.063-.068h0l0,0,.008-.008.047-.042.1-.089.4-.362.838-.752c.575-.516,1.177-1.054,1.8-1.612l4.032-3.586.233-.207.19.248,2.543,3.316,3.342,4.386h-.455a78.646,78.646,0,0,0,6.389-9.746l.15-.268.155.257c.712,1.179,1.152,2.16,1.559,2.768S428.506,249.674,428.477,249.7Z" fill="#455a64"/>
            </g>
          </g>
        </g>
        <g id="Grupo_293" data-name="Grupo 293">
          <g id="Grupo_292" data-name="Grupo 292">
            <g id="Grupo_291" data-name="Grupo 291">
              <path id="Trazado_113" data-name="Trazado 113" d="M408.978,233.97a3.866,3.866,0,0,1-.191,1.073c-.158.68-.419,1.657-.767,2.856-.7,2.4-1.776,5.681-3.171,9.23s-2.846,6.687-3.972,8.916c-.562,1.115-1.037,2.008-1.385,2.613a3.874,3.874,0,0,1-.591.915,32.667,32.667,0,0,1,1.6-3.708c1.026-2.269,2.407-5.419,3.8-8.952s2.526-6.779,3.322-9.139A32.953,32.953,0,0,1,408.978,233.97Z" fill="#455a64"/>
            </g>
          </g>
        </g>
        <g id="Grupo_306" data-name="Grupo 306">
          <g id="Grupo_296" data-name="Grupo 296">
            <g id="Grupo_295" data-name="Grupo 295">
              <g id="Grupo_294" data-name="Grupo 294">
                <path id="Trazado_114" data-name="Trazado 114" d="M416.956,212.985c.039.137-1.873.647-4.744.846l.209-.4,2.123,3.451,1.345,2.252.323.541-.615-.118a48.073,48.073,0,0,0-6.153-.516,5.039,5.039,0,0,1,1.75-.286,19.431,19.431,0,0,1,4.5.247l-.292.424c-.432-.707-.89-1.458-1.366-2.236-.736-1.24-1.429-2.41-2.065-3.483l-.227-.382.436-.018c1.419-.059,2.613-.149,3.446-.227A6.325,6.325,0,0,1,416.956,212.985Z" fill="#455a64"/>
              </g>
            </g>
          </g>
          <g id="Grupo_299" data-name="Grupo 299">
            <g id="Grupo_298" data-name="Grupo 298">
              <g id="Grupo_297" data-name="Grupo 297">
                <path id="Trazado_115" data-name="Trazado 115" d="M427.083,221.732c-.016.1-1.6-.293-4.346-.36l.18-.211c.653,2.59,1.519,6.034,2.519,10l.116.463-.455-.125-7.016-1.926-1.914-.531.378-.295c.156,3.8.3,7.332.424,10.366l.013.334-.309-.087-6.736-1.886-1.863-.562a2.409,2.409,0,0,1-.643-.246,2.519,2.519,0,0,1,.682.1l1.895.432,6.768,1.68-.3.248-.523-10.358-.02-.4.4.11,1.91.528,6.989,1.954-.339.338-2.324-10.068-.052-.226.233.014a21.489,21.489,0,0,1,3.212.409A4.763,4.763,0,0,1,427.083,221.732Z" fill="#455a64"/>
              </g>
            </g>
          </g>
          <g id="Grupo_302" data-name="Grupo 302">
            <g id="Grupo_301" data-name="Grupo 301">
              <g id="Grupo_300" data-name="Grupo 300">
                <path id="Trazado_116" data-name="Trazado 116" d="M428.477,249.7a2.873,2.873,0,0,1-.8-.821c-.466-.589-.964-1.561-1.7-2.685l.3-.012a66.938,66.938,0,0,1-6.245,9.923l-.227.3-.228-.3-3.358-4.374-2.534-3.323.422.042L410.044,252l-1.827,1.583-.852.736-.409.353-.1.087-.052.044-.051.04a.241.241,0,0,1-.071.032c-.037.092-.364-.138-.283-.241.011-.068.005-.026.009-.044l.008-.024.016-.032c.007-.011,0-.012,0,.028-.018.052.077.184.114.174.06.011.008,0-.012.01l-.188.061-.064-.211c-.661-2.173-1.13-3.953-1.388-5.2a5.427,5.427,0,0,1-.212-1.974c.041,0,.107.694.453,1.916.328,1.223.86,2.981,1.569,5.126l-.252-.15a.47.47,0,0,1,.244.005.28.28,0,0,1,.184.271.389.389,0,0,1-.044.151c-.023-.013.043.049-.055-.025a1.258,1.258,0,0,0-.155-.06.285.285,0,0,0-.064-.111c-.02-.027-.021-.008-.063-.068h0l0,0,.008-.008.047-.042.1-.089.4-.362.838-.752c.575-.516,1.177-1.054,1.8-1.612l4.032-3.586.233-.207.19.248,2.543,3.316,3.342,4.386h-.455a78.646,78.646,0,0,0,6.389-9.746l.15-.268.155.257c.712,1.179,1.152,2.16,1.559,2.768S428.506,249.674,428.477,249.7Z" fill="#455a64"/>
              </g>
            </g>
          </g>
          <g id="Grupo_305" data-name="Grupo 305">
            <g id="Grupo_304" data-name="Grupo 304">
              <g id="Grupo_303" data-name="Grupo 303">
                <path id="Trazado_117" data-name="Trazado 117" d="M408.978,233.97a3.866,3.866,0,0,1-.191,1.073c-.158.68-.419,1.657-.767,2.856-.7,2.4-1.776,5.681-3.171,9.23s-2.846,6.687-3.972,8.916c-.562,1.115-1.037,2.008-1.385,2.613a3.874,3.874,0,0,1-.591.915,32.667,32.667,0,0,1,1.6-3.708c1.026-2.269,2.407-5.419,3.8-8.952s2.526-6.779,3.322-9.139A32.953,32.953,0,0,1,408.978,233.97Z" fill="#455a64"/>
              </g>
            </g>
          </g>
        </g>
      </g>
      <ellipse id="Elipse_5" data-name="Elipse 5" cx="67.852" cy="4.155" rx="67.852" ry="4.155" transform="translate(162.933 445.298)" fill="#eaebec"/>
    </g>
  </g>
</svg>
