<svg width="16" height="16" viewBox="0 0 16 16" fill="none" xmlns="http://www.w3.org/2000/svg">
<path d="M8.00001 14.6667C11.6819 14.6667 14.6667 11.6819 14.6667 8.00001C14.6667 4.31811 11.6819 1.33334 8.00001 1.33334C4.31811 1.33334 1.33334 4.31811 1.33334 8.00001C1.33334 11.6819 4.31811 14.6667 8.00001 14.6667Z" stroke="#333333" stroke-linecap="round" stroke-linejoin="round"/>
<path d="M6.06 5.99998C6.21673 5.55443 6.5261 5.17872 6.9333 4.9394C7.3405 4.70009 7.81926 4.61261 8.28478 4.69246C8.7503 4.77231 9.17254 5.01433 9.47672 5.37567C9.78089 5.737 9.94737 6.19433 9.94666 6.66665C9.94666 7.99998 7.94666 8.66665 7.94666 8.66665" stroke="#333333" stroke-linecap="round" stroke-linejoin="round"/>
<path d="M8 11.3333H8.00667" stroke="#333333" stroke-linecap="round" stroke-linejoin="round"/>
</svg>
