<svg xmlns="http://www.w3.org/2000/svg" width="16.012" height="10.038" viewBox="0 0 16.012 10.038">
  <path id="behance-brands" d="M6.449,79.9a2.11,2.11,0,0,0,1.345-2.057c0-1.963-1.462-2.441-3.15-2.441H0v9.852H4.776c1.79,0,3.472-.859,3.472-2.86a2.374,2.374,0,0,0-1.8-2.493ZM2.165,77.082H4.2c.781,0,1.484.22,1.484,1.126,0,.837-.548,1.173-1.32,1.173h-2.2Zm2.316,6.5H2.165V80.865h2.36c.953,0,1.557.4,1.557,1.407S5.362,83.578,4.481,83.578Zm9.966-6.691H10.452v-.97h3.995Zm1.565,4.9c0-2.11-1.234-3.869-3.472-3.869a3.585,3.585,0,0,0-3.65,3.775,3.475,3.475,0,0,0,3.65,3.744,3.18,3.18,0,0,0,3.339-2.4H14.149a1.623,1.623,0,0,1-1.548.931,1.613,1.613,0,0,1-1.751-1.815H16C16,82.038,16.012,81.913,16.012,81.788Zm-5.159-.867A1.531,1.531,0,0,1,12.479,79.4a1.46,1.46,0,0,1,1.562,1.523Z" transform="translate(0 -75.4)" fill="#f7f7f7"/>
</svg>
