<svg id="Layer_2" data-name="Layer 2" xmlns="http://www.w3.org/2000/svg" width="20.56" height="20.56" viewBox="0 0 20.56 20.56">
  <rect id="Rectángulo_18" data-name="Rectángulo 18" width="20.56" height="20.56" transform="translate(20.56 20.56) rotate(180)" fill="#f7f7f7" opacity="0"/>
  <path id="github" d="M10.423,1A9.329,9.329,0,0,0,1,10.226,9.243,9.243,0,0,0,7.442,18.99c.471.086.642-.2.642-.445V16.977c-2.621.557-3.178-1.234-3.178-1.234a2.45,2.45,0,0,0-1.045-1.354c-.857-.565.069-.557.069-.557a1.979,1.979,0,0,1,1.439.951,2.03,2.03,0,0,0,2.741.762,2,2,0,0,1,.6-1.234c-2.09-.231-4.283-1.019-4.283-4.557a3.555,3.555,0,0,1,.951-2.493,3.238,3.238,0,0,1,.094-2.433s.8-.248,2.57.942a9.149,9.149,0,0,1,4.712,0c1.8-1.191,2.57-.942,2.57-.942a3.238,3.238,0,0,1,.094,2.433,3.555,3.555,0,0,1,1,2.476c0,3.547-2.21,4.326-4.283,4.557a2.142,2.142,0,0,1,.642,1.713v2.527c0,.3.171.54.642.445a9.252,9.252,0,0,0,6.425-8.755A9.329,9.329,0,0,0,10.423,1" transform="translate(-0.143 -0.143)" fill="#f7f7f7"/>
</svg>
