<svg xmlns="http://www.w3.org/2000/svg" width="16" height="16" viewBox="0 0 16 16">
  <g id="Grupo_6" data-name="Grupo 6" transform="translate(-162.085 -845.744)">
    <path id="Trazado_6" data-name="Trazado 6" d="M170.085,845.744c-2.172,0-2.445.009-3.3.048a5.868,5.868,0,0,0-1.942.372,4.093,4.093,0,0,0-2.34,2.34,5.867,5.867,0,0,0-.372,1.942c-.039.853-.048,1.126-.048,3.3s.009,2.445.048,3.3a5.861,5.861,0,0,0,.372,1.941,4.093,4.093,0,0,0,2.34,2.34,5.868,5.868,0,0,0,1.942.372c.853.039,1.126.048,3.3.048s2.445-.009,3.3-.048a5.873,5.873,0,0,0,1.942-.372,4.088,4.088,0,0,0,2.339-2.34,5.861,5.861,0,0,0,.372-1.941c.039-.854.048-1.126.048-3.3s-.009-2.445-.048-3.3a5.867,5.867,0,0,0-.372-1.942,4.088,4.088,0,0,0-2.339-2.34,5.873,5.873,0,0,0-1.942-.372c-.854-.039-1.126-.048-3.3-.048Zm0,1.442c2.136,0,2.389.008,3.233.046a4.413,4.413,0,0,1,1.485.276,2.65,2.65,0,0,1,1.519,1.518,4.426,4.426,0,0,1,.275,1.485c.039.844.047,1.1.047,3.233s-.008,2.389-.047,3.233a4.426,4.426,0,0,1-.275,1.485,2.655,2.655,0,0,1-1.519,1.519,4.419,4.419,0,0,1-1.485.275c-.843.039-1.1.047-3.233.047s-2.389-.008-3.232-.047a4.433,4.433,0,0,1-1.486-.275,2.649,2.649,0,0,1-1.518-1.519,4.418,4.418,0,0,1-.276-1.485c-.038-.844-.046-1.1-.046-3.233s.008-2.389.046-3.233a4.419,4.419,0,0,1,.276-1.485,2.644,2.644,0,0,1,1.518-1.518,4.427,4.427,0,0,1,1.486-.276c.843-.038,1.1-.046,3.232-.046" fill="#f7f7f7"/>
    <path id="Trazado_7" data-name="Trazado 7" d="M170.085,856.411a2.667,2.667,0,1,1,2.667-2.667,2.667,2.667,0,0,1-2.667,2.667Zm0-6.775a4.108,4.108,0,1,0,4.108,4.108,4.108,4.108,0,0,0-4.108-4.108Z" fill="#f7f7f7"/>
    <path id="Trazado_8" data-name="Trazado 8" d="M175.316,849.474a.96.96,0,1,1-.96-.96.96.96,0,0,1,.96.96Z" fill="#f7f7f7"/>
  </g>
</svg>
