<svg id="Layer_2" data-name="Layer 2" xmlns="http://www.w3.org/2000/svg" width="15.899" height="15.899" viewBox="0 0 15.899 15.899">
  <g id="linkedin">
    <rect id="Rect치ngulo_19" data-name="Rect치ngulo 19" width="15.899" height="15.899" transform="translate(15.899 15.899) rotate(180)" fill="#f7f7f7" opacity="0"/>
    <path id="Trazado_13" data-name="Trazado 13" d="M13.175,8.4A3.862,3.862,0,0,0,9.3,12.256v3.9a.6.6,0,0,0,.6.6h1.391a.6.6,0,0,0,.6-.6v-3.9a1.285,1.285,0,0,1,1.424-1.279A1.325,1.325,0,0,1,14.467,12.3v3.849a.6.6,0,0,0,.6.6h1.391a.6.6,0,0,0,.6-.6v-3.9A3.862,3.862,0,0,0,13.175,8.4Z" transform="translate(-3.139 -2.835)" fill="#f7f7f7"/>
    <rect id="Rect치ngulo_20" data-name="Rect치ngulo 20" width="2.981" height="7.751" rx="0.9" transform="translate(1.987 6.161)" fill="#f7f7f7"/>
    <circle id="Elipse_10" data-name="Elipse 10" cx="1.491" cy="1.491" r="1.491" transform="translate(1.987 1.987)" fill="#f7f7f7"/>
  </g>
</svg>
