<svg width="114" height="26" viewBox="0 0 114 26" fill="none" xmlns="http://www.w3.org/2000/svg">
<path d="M12.788 25.432C20.024 25.432 25.316 20.248 25.316 13.012C25.316 5.77604 20.024 0.592041 12.788 0.592041C5.516 0.592041 0.223999 5.77604 0.223999 13.012C0.223999 20.248 5.516 25.432 12.788 25.432ZM12.788 20.896C8.324 20.896 5.48 17.476 5.48 13.012C5.48 8.51204 8.324 5.12804 12.788 5.12804C17.216 5.12804 20.06 8.51204 20.06 13.012C20.06 17.476 17.216 20.896 12.788 20.896Z" fill="#F9F9F9"/>
<path d="M38.2273 25L45.2113 7.61204H40.3153L35.7433 19.708L31.2073 7.61204H26.3113L33.2953 25H38.2273Z" fill="#F9F9F9"/>
<path d="M55.4244 25.432C58.1244 25.432 60.8604 24.604 62.5884 23.02L60.5364 19.996C59.4204 21.076 57.4044 21.688 55.9284 21.688C52.9764 21.688 51.2484 19.924 50.9244 17.8H63.8484V16.72C63.8484 11.068 60.3564 7.18004 55.1364 7.18004C49.8804 7.18004 46.1364 11.248 46.1364 16.288C46.1364 21.868 50.1324 25.432 55.4244 25.432ZM59.4564 14.632H50.8884C51.0684 12.904 52.2924 10.924 55.1364 10.924C58.1604 10.924 59.3124 12.976 59.4564 14.632Z" fill="#F9F9F9"/>
<path d="M71.7228 25V13.516C72.4788 12.4 74.4948 11.536 76.0068 11.536C76.5468 11.536 76.9428 11.572 77.2668 11.644V7.18004C75.1068 7.18004 72.9828 8.44004 71.7228 9.95204V7.61204H67.1508V25H71.7228Z" fill="#F9F9F9"/>
<path d="M95.1715 25V13.768C95.1715 8.76404 91.5355 7.18004 87.5395 7.18004C84.8035 7.18004 82.0675 8.00804 79.9435 9.91604L81.7435 13.12C83.1835 11.788 84.9115 11.068 86.7475 11.068C89.0515 11.068 90.5635 12.22 90.5635 13.984V16.18C89.4115 14.812 87.3955 14.056 85.0555 14.056C82.2835 14.056 79.0435 15.568 79.0435 19.672C79.0435 23.56 82.2835 25.432 85.0555 25.432C87.3235 25.432 89.3755 24.604 90.5635 23.164V25H95.1715ZM86.8915 22.336C85.0915 22.336 83.6155 21.4 83.6155 19.744C83.6155 18.088 85.0915 17.116 86.8915 17.116C88.3675 17.116 89.8075 17.656 90.5635 18.664V20.824C89.8075 21.832 88.3675 22.336 86.8915 22.336Z" fill="#F9F9F9"/>
<path d="M104.242 25V0.98804H99.6703V25H104.242Z" fill="#F9F9F9"/>
<path d="M113.348 25V0.98804H108.776V25H113.348Z" fill="#F9F9F9"/>
</svg>
